<?xml version='1.0' encoding='UTF-8' standalone='no'?>
<!-- Created with Fritzing (http://www.fritzing.org/) -->
<svg xmlns:svg='http://www.w3.org/2000/svg' xmlns='http://www.w3.org/2000/svg' version='1.2' baseProfile='tiny' x='0in' y='0in' width='4.74303in' height='3.26035in' viewBox='0 0 341.498 234.746' >
<path stroke='#8c8c8c' stroke-width='2.15136' stroke-linecap='round' stroke-linejoin='round' fill='none' d='M4.52664,49.2068L28.369,64.2207' />
<path stroke='#8c8c8c' stroke-width='2.15136' stroke-linecap='round' stroke-linejoin='round' fill='none' d='M11.7288,49.2068L28.7961,60.2216' />
<g partID='126000'><g transform='translate(0,20)' ><g xmlns="http://www.w3.org/2000/svg" id="breadboard">
 <rect xmlns="http://www.w3.org/2000/svg" x="3.45096" y="25.421" fill="none" id="connector0pin" width="2.15208" height="0.72"/>
 <rect xmlns="http://www.w3.org/2000/svg" x="10.651" y="25.421" fill="none" id="connector1pin" width="2.15424" height="0.72"/>
 <g xmlns="http://www.w3.org/2000/svg" fill="none" id="connector0leg" stroke-linecap="round" y1="40.565" y2="74.754" stroke-width="2.15136" x1="6.287" stroke="#8C8C8C" x2="6.287"/>
 <g xmlns="http://www.w3.org/2000/svg" fill="none" id="connector1leg" stroke-linecap="round" y1="40.565" y2="74.754" stroke-width="2.15136" x1="16.29" stroke="#8C8C8C" x2="16.29"/>
 <rect xmlns="http://www.w3.org/2000/svg" x="3.45096" y="19.3795" fill="#8C8C8C" width="2.15136" height="9.82728"/>
 <path xmlns="http://www.w3.org/2000/svg" fill="#8C8C8C" d="M12.8045,29.2068c0,-1.1736,-1.06488,-2.1024,-2.088,-2.9916c-0.41616,-0.3672,-1.19952,-1.00152,-1.19952,-1.42488l0,-5.47056l-2.16144,0l0,5.78016c0,1.0584,0.94752,1.87848,1.94616,2.74824c0.44424,0.37584,1.34856,1.24992,1.34856,1.76976"/>
 <g xmlns="http://www.w3.org/2000/svg" id="g12">
  <path xmlns="http://www.w3.org/2000/svg" fill="#3851fe" id="color_path14" opacity="0.3" d="M14.1732,13.001L14.1732,7.0884C14.1732,3.1752,11.0052,0,7.08768,0C3.1752,0,0,3.16944,0,7.0884l0,13.649c1.47384,1.65096,4.0968,2.75256,7.08768,2.75256c4.61952,0,8.36856,-2.61792,8.36856,-5.85936l0,-1.52352C15.4555,14.9645,14.9818,13.9032,14.1732,13.001z"/>
  <path xmlns="http://www.w3.org/2000/svg" fill="#E6E6E6" id="path16" opacity="0.5" d="M14.1732,13.001L14.1732,7.0884C14.1732,3.1752,11.0052,0,7.08768,0C3.1752,0,0,3.16944,0,7.0884l0,13.649c1.47384,1.65096,4.0968,2.75256,7.08768,2.75256c4.61952,0,8.36856,-2.61792,8.36856,-5.85936l0,-1.52352C15.4555,14.9645,14.9818,13.9032,14.1732,13.001z"/>
  <path xmlns="http://www.w3.org/2000/svg" fill="#D1D1D1" id="path18" opacity="0.9" d="M14.1732,13.001l0,3.10536c0,2.73888,-3.16584,4.96512,-7.08552,4.96512C3.1752,21.0715,0,18.8525,0,16.1064l0,3.10536L0,20.736c1.47384,1.65168,4.0968,2.75256,7.08768,2.75256c4.61952,0,8.36856,-2.61792,8.36856,-5.85864L15.4562,16.1064C15.4555,14.9645,14.9818,13.9032,14.1732,13.001z"/>
  <path xmlns="http://www.w3.org/2000/svg" fill="#3851fe" id="color_path20" opacity="0.7" d="M14.1732,13.001l0,3.10536c0,2.73888,-3.16584,4.96512,-7.08552,4.96512C3.1752,21.0715,0,18.8525,0,16.1064l0,3.10536L0,20.736c1.47384,1.65168,4.0968,2.75256,7.08768,2.75256c4.61952,0,8.36856,-2.61792,8.36856,-5.85864L15.4562,16.1064C15.4555,14.9645,14.9818,13.9032,14.1732,13.001z"/>
  <path xmlns="http://www.w3.org/2000/svg" fill="#3851fe" id="color_path22" opacity="0.25" d="M14.1732,13.001l0,3.10536c0,2.73888,-3.16584,4.96512,-7.08552,4.96512C3.1752,21.0715,0,18.8525,0,16.1064l0,3.10536c1.47384,1.65024,4.0968,2.75256,7.08768,2.75256c4.61952,0,8.36856,-2.61792,8.36856,-5.85864C15.4555,14.9645,14.9818,13.9032,14.1732,13.001z"/>
  <ellipse xmlns="http://www.w3.org/2000/svg" ry="4.9608" fill="#E6E6E6" id="ellipse24" cx="7.08768" cy="16.1064" opacity="0.25" rx="7.08696"/>
  <ellipse xmlns="http://www.w3.org/2000/svg" ry="4.9608" fill="#3851fe" id="color_ellipse26" cx="7.08768" cy="16.1064" opacity="0.25" rx="7.08696"/>
  <polygon xmlns="http://www.w3.org/2000/svg" fill="#666666" id="polygon28" points="2.2032,9.648,2.2032,16.1071,3.19608,16.1071,3.19608,13.0946,6.0156,13.0946,10.0123,8.80488,3.40704,8.80488"/>
  <polygon xmlns="http://www.w3.org/2000/svg" fill="#666666" id="polygon30" points="10.7784,8.52408,11.2147,9.03384,7.41168,13.0946,11.0599,13.0946,11.0599,16.1071,11.9736,16.1071,11.9736,8.52408"/>
  <path xmlns="http://www.w3.org/2000/svg" fill="#3851fe" id="color_path32" opacity="0.65" d="M14.1732,13.001L14.1732,7.0884C14.1732,3.1752,11.0052,0,7.08768,0C3.1752,0,0,3.16944,0,7.0884l0,13.649c1.47384,1.65096,4.0968,2.75256,7.08768,2.75256c4.61952,0,8.36856,-2.61792,8.36856,-5.85936l0,-1.52352C15.4555,14.9645,14.9818,13.9032,14.1732,13.001z"/>
  <path xmlns="http://www.w3.org/2000/svg" fill="#FFFFFF" id="path34" opacity="0.5" d="M10.3882,3.75408l1.4364,-0.2736c-0.84168,-1.13184,-2.08224,-1.95768,-3.54168,-2.23848l0.25416,1.08072C9.30096,2.59344,9.94392,3.1032,10.3882,3.75408z"/>
  <path xmlns="http://www.w3.org/2000/svg" fill="#FFFFFF" id="path36" opacity="0.5" d="M0.76824,19.926l0,1.51992c0.64872,0.5292,1.43352,0.97632,2.3076,1.31688l0,-1.52496C2.19744,20.9016,1.41912,20.4559,0.76824,19.926z"/>
  <path xmlns="http://www.w3.org/2000/svg" fill="#FFFFFF" id="path38" opacity="0.5" d="M11.0729,20.2097c-0.2556,0.1224,-0.52992,0.22968,-0.80568,0.32976c-0.05832,0.01944,-0.11736,0.04032,-0.17784,0.05832c-0.56376,0.17928,-1.16136,0.31896,-1.79496,0.39456c-0.07488,0.00936,-0.1512,0.01872,-0.22464,0.01944c-0.3204,0.03024,-0.64368,0.05832,-0.97056,0.05832c-0.14832,0,-0.30744,-0.01512,-0.4716,-0.02376c-1.20024,-0.05688,-2.33064,-0.31464,-3.2976,-0.73944L3.33,11.9174L3.33,7.092c0,-1.47096,0.84816,-2.72952,2.0736,-3.34944L5.38128,3.68928l-1.24776,-1.512c-1.66968,1.00296,-2.79,2.8224,-2.79,4.91184l0,11.9052c-0.04968,-0.04968,-0.30816,-0.30888,-0.48024,-0.52992l-0.30744,0.6876c1.40112,1.48176,3.8088,2.46168,6.54264,2.46168c1.67976,0,3.23712,-0.37368,4.51152,-1.00224l-0.52704,-0.40896C11.0729,20.2097,11.0729,20.2097,11.0729,20.2097z"/>
 </g>
</g>
</g></g><path stroke='#8c8c8c' stroke-width='2.0952' stroke-linecap='round' stroke-linejoin='round' fill='none' d='M134.099,134.84L134.395,126.622' />
<path stroke='#8c8c8c' stroke-width='2.0952' stroke-linecap='round' stroke-linejoin='round' fill='none' d='M134.099,161.55L134.199,172.413' />
<g partID='125970'><g transform='translate(137.732,132.745)' ><g transform='matrix(0,1,-1,0,0,0)'  ><g xmlns="http://www.w3.org/2000/svg" id="breadboard">
 <rect xmlns="http://www.w3.org/2000/svg" x="0.36" y="2.5848" fill="none" id="connector0pin" width="0.72" height="0.72"/>
 <rect xmlns="http://www.w3.org/2000/svg" x="29.8202" y="2.5848" fill="none" id="connector1pin" width="0.72" height="0.72"/>
 <line xmlns="http://www.w3.org/2000/svg" fill="none" id="connector0leg" stroke-linecap="round" y1="3.6324" y2="3.6324" stroke-width="2.0952" x1="1.0476" stroke="#8C8C8C" x2="2.0952"/>
 <line xmlns="http://www.w3.org/2000/svg" fill="none" id="connector1leg" stroke-linecap="round" y1="3.6324" y2="3.6324" stroke-width="2.0952" x1="29.8526" stroke="#8C8C8C" x2="28.805"/>
 <path xmlns="http://www.w3.org/2000/svg" fill="none" stroke-width="2.0952" stroke="#8C8C8C" d="M1.0476,3.6324l28.3666,0"/>
 <path xmlns="http://www.w3.org/2000/svg" fill="#D9B477" id="body" d="M10.2478,0.49536c-0.36,-0.1656,-0.9792,-0.2952,-1.3752,-0.2952l-1.9872,0c-0.396,0,-0.72,0.324,-0.72,0.72l0,5.35608c0,0.39672,0.324,0.72,0.72,0.72l1.9872,0c0.396,0,1.0152,-0.13608,1.3752,-0.2952l0.072,-0.03528c0.36,-0.1656,0.9792,-0.2952,1.3752,-0.2952l7.1856,0c0.39672,0,1.01448,0.13608,1.37448,0.2952l0.07272,0.03528c0.36,0.1656,0.97776,0.2952,1.3752,0.2952l1.9872,0c0.39744,0,0.72,-0.32328,0.72,-0.72L24.4102,0.92016c0,-0.396,-0.32256,-0.72,-0.72,-0.72l-1.9872,0c-0.39744,0,-1.0152,0.1368,-1.3752,0.2952l-0.07272,0.036c-0.36,0.1656,-0.97776,0.2952,-1.37448,0.2952l-7.1856,0c-0.396,0,-1.0152,-0.1368,-1.3752,-0.2952L10.2478,0.49536z"/>
 <rect xmlns="http://www.w3.org/2000/svg" x="22.019" y="0.19368" fill="#ad9f4e" id="gold_band" width="0.70272" height="6.79536"/>
 <rect xmlns="http://www.w3.org/2000/svg" x="16.1726" y="0.82656" fill="#ff4d00" id="band_rd_multiplier" width="1.8504" height="5.5368"/>
 <rect xmlns="http://www.w3.org/2000/svg" x="12.4726" y="0.82656" fill="#c40808" id="band_2_nd" width="1.8504" height="5.5368"/>
 <path xmlns="http://www.w3.org/2000/svg" fill="#c40808" id="band_1_st" d="M10.6286,0.63936c-0.1152,-0.036,-0.2232,-0.072,-0.3096,-0.1152l-0.072,-0.036c-0.36,-0.16488,-0.9792,-0.2952,-1.3752,-0.2952l-0.0864,0l0,6.79608l0.0864,0c0.396,0,1.0152,-0.13608,1.3752,-0.2952l0.072,-0.03528c0.0864,-0.04464,0.1944,-0.07992,0.3096,-0.1152L10.6286,0.63936z"/>
 <path xmlns="http://www.w3.org/2000/svg" id="Shadow" opacity="0.3" d="M23.711,4.0896L23.711,4.0896c0,0.37944,-0.13032,0.69912,-0.2952,0.69912l-1.9224,0c-0.38016,0,-0.97776,-0.05616,-1.33272,-0.1224L20.088,4.65048c-0.34488,-0.0648,-0.94896,-0.1224,-1.33344,-0.1224L11.808,4.52808c-0.3816,0,-0.9792,0.0576,-1.332,0.1224l-0.072,0.01512c-0.3456,0.06552,-0.9432,0.1224,-1.332,0.1224l-0.3168,0l-1.0008,0l-0.3096,0c-0.3816,0,-0.6984,0.29376,-0.6984,0.64512l0,0.24696L6.7464,5.8392l0,0.1728c0,0.36,0.3168,0.64512,0.6984,0.64512l1.62,0c0.3816,0,0.9792,-0.1224,1.332,-0.26712l0.072,-0.02808c0.3456,-0.14112,0.9504,-0.26496,1.332,-0.26496l6.94656,0c0.37944,0,0.97704,0.12384,1.33416,0.26568l0.07416,0.02808c0.34488,0.14472,0.94464,0.26712,1.33344,0.26712l2.2248,0c0.38088,0,0.69912,-0.2952,0.69912,-0.64512L24.413,5.472L24.413,4.49928L24.413,2.65536C24.1358,2.76336,23.711,3.06576,23.711,4.0896z"/>
 <rect xmlns="http://www.w3.org/2000/svg" x="22.019" y="3.48336" id="ShadowExtra" opacity="0.4" width="0.70272" height="3.15288"/>
 <path xmlns="http://www.w3.org/2000/svg" fill="#FFFFFF" id="ReflexRight" opacity="0.25" d="M19.751,1.08576c0.22968,0,0.49104,-0.1008,0.6624,-0.1728c0.2016,-0.0792,0.57672,-0.144,0.96624,-0.144l1.46088,0c0.22464,0,0.22464,0.2448,0.22464,0.3744c0,0.1296,-0.01512,0.3816,-0.22464,0.3816l-3.06,0c-0.10728,0,-0.2304,-0.1152,-0.2304,-0.22392C19.5566,1.21536,19.6286,1.08576,19.751,1.08576z"/>
 <circle xmlns="http://www.w3.org/2000/svg" fill="#FFFFFF" id="ReflexLeft" cx="6.99984" cy="1.13616" r="0.432" opacity="0.35"/>
 <rect xmlns="http://www.w3.org/2000/svg" x="22.019" y="0.42336" fill="#FFFF33" id="Reflex_gold" opacity="0.5" width="0.70272" height="1.62"/>
 <rect xmlns="http://www.w3.org/2000/svg" x="22.019" y="0.78336" fill="#FFFFFF" id="Reflex_extra" opacity="0.5" width="0.70272" height="0.7488"/>
</g>
</g></g></g><g partID='854190480'><line stroke-linecap='round' stroke='#000000' x1='98.3952' y1='213.022' x2='105.597' y2='105.022' stroke-width='3.2' /><line stroke-linecap='round' stroke='#404040' x1='98.3952' y1='213.022' x2='105.597' y2='105.022' stroke-width='1.6' /></g><g partID='854190160'><line stroke-linecap='round' stroke='#8c0000' x1='134.395' y1='126.622' x2='112.796' y2='105.022' stroke-width='3.2' /><line stroke-linecap='round' stroke='#cc1414' x1='134.395' y1='126.622' x2='112.796' y2='105.022' stroke-width='1.6' /></g><g partID='854190230'><line stroke-linecap='round' stroke='#00a527' x1='134.199' y1='172.413' x2='113.957' y2='202.278' stroke-width='3.2' /><line stroke-linecap='round' stroke='#25cc35' x1='134.199' y1='172.413' x2='113.957' y2='202.278' stroke-width='1.6' /></g><g partID='854190300'><line stroke-linecap='round' stroke='#d6d63a' x1='134.199' y1='172.413' x2='40.7963' y2='105.022' stroke-width='3.2' /><line stroke-linecap='round' stroke='#fff800' x1='134.199' y1='172.413' x2='40.7963' y2='105.022' stroke-width='1.6' /></g><g partID='854186770' id='partLabel'><g transform='translate(163.493,181.946)' ><g font-size='9' font-style='normal' font-weight='normal' fill='#000000' font-family="'DroidSans'" id='breadboardLabel' fill-opacity='1' stroke='none' ><text x='0' y='6.75'>Algae Resistor</text></g></g></g><g partID='125970' id='partLabel'><g transform='translate(146.298,134.299)' ><g font-size='9' font-style='normal' font-weight='normal' fill='#000000' font-family="'DroidSans'" id='breadboardLabel' fill-opacity='1' stroke='none' ><text x='0' y='6.75'>R1 - Resistance of Sensor x 2</text><text x='0' y='15.75'>&#xb1;5%</text><text x='0' y='24.75'>22k&#x3a9;</text></g></g></g><g partID='126000' id='partLabel'><g transform='translate(30.0224,0)' ><g font-size='9' font-style='normal' font-weight='normal' fill='#000000' font-family="'DroidSans'" id='breadboardLabel' fill-opacity='1' stroke='none' ><text x='0' y='6.75'>onboard LED machine.Pin(2, machine.Pin.OUT)</text><text x='0' y='15.75'>Blue (470nm)</text></g></g></g></svg>