<?xml version='1.0' encoding='UTF-8' standalone='no'?>
<!-- Created with Fritzing (http://www.fritzing.org/) -->
<svg xmlns:svg='http://www.w3.org/2000/svg' xmlns='http://www.w3.org/2000/svg' version='1.2' baseProfile='tiny' x='0in' y='0in' width='6.32968in' height='3.17636in' viewBox='0 0 455.737 228.698' >
<g partID='854183940'><g transform='translate(122.013,23.1442)' ><g  id="breadboardbreadboard">
 <g  id="background">
  <rect  width="129.839" height="100.914" fill="#D9D9D9"/>
 </g>
 <rect  width="90.5" x="19.67" y="46.83" height="7.252" fill="#CCC9C9"/>
 <g transform="matrix(1, 0, 0, 1, -4.5, -9)">
  <g  id="sockets">
   <g  id="A1pin">
    <path  d="M9.427,19.858c0,-1.322,1.071,-2.396,2.395,-2.396c1.324,0,2.394,1.072,2.394,2.396" fill="#BFBFBF"/>
    <path  d="M14.214,19.858c0,1.319,-1.07,2.393,-2.394,2.393c-1.324,0,-2.395,-1.072,-2.395,-2.393" fill="#E6E6E6"/>
    <circle  r="1.196" cx="11.822" cy="19.857" fill="#383838"/>
   </g>
   <g  id="B1pin">
    <path  d="M9.427,27.058c0,-1.322,1.071,-2.396,2.395,-2.396c1.324,0,2.394,1.071,2.394,2.396" fill="#BFBFBF"/>
    <path  d="M14.214,27.058c0,1.321,-1.07,2.393,-2.394,2.393c-1.324,0,-2.395,-1.07,-2.395,-2.393l0,0" fill="#E6E6E6"/>
    <circle  r="1.197" cx="11.822" cy="27.057" fill="#383838"/>
   </g>
   <g  id="C1pin">
    <path  d="M9.427,34.256c0,-1.319,1.071,-2.394,2.395,-2.394c1.324,0,2.394,1.072,2.394,2.394" fill="#BFBFBF"/>
    <path  d="M14.214,34.256c0,1.322,-1.07,2.396,-2.394,2.396c-1.324,0,-2.395,-1.072,-2.395,-2.396" fill="#E6E6E6"/>
    <circle  r="1.196" cx="11.822" cy="34.257" fill="#383838"/>
   </g>
   <g  id="D1pin">
    <path  d="M9.427,41.457c0,-1.322,1.071,-2.396,2.395,-2.396c1.324,0,2.394,1.072,2.394,2.396" fill="#BFBFBF"/>
    <path  d="M14.214,41.457c0,1.321,-1.07,2.394,-2.394,2.394c-1.324,0,-2.395,-1.07,-2.395,-2.394l0,0" fill="#E6E6E6"/>
    <circle  r="1.197" cx="11.822" cy="41.457" fill="#383838"/>
   </g>
   <g  id="E1pin">
    <path  d="M9.427,48.657c0,-1.322,1.071,-2.394,2.395,-2.394c1.324,0,2.394,1.07,2.394,2.394" fill="#BFBFBF"/>
    <path  d="M14.214,48.657c0,1.322,-1.07,2.395,-2.394,2.395c-1.324,0,-2.395,-1.072,-2.395,-2.395l0,0" fill="#E6E6E6"/>
    <circle  r="1.197" cx="11.822" cy="48.657" fill="#383838"/>
   </g>
   <g  id="A2pin">
    <path  d="M16.627,19.858c0,-1.322,1.071,-2.396,2.395,-2.396c1.32,0,2.394,1.072,2.394,2.396" fill="#BFBFBF"/>
    <path  d="M21.414,19.858c0,1.319,-1.07,2.393,-2.393,2.395c-1.322,0,-2.396,-1.07,-2.396,-2.393c0,-0.002,0,-0.002,0,-0.002" fill="#E6E6E6"/>
    <circle  r="1.196" cx="19.022" cy="19.857" fill="#383838"/>
   </g>
   <g  id="B2pin">
    <path  d="M16.627,27.058c0,-1.322,1.071,-2.396,2.395,-2.396c1.32,0,2.394,1.071,2.394,2.396" fill="#BFBFBF"/>
    <path  d="M21.414,27.058c0,1.321,-1.07,2.395,-2.393,2.395c-1.322,0.002,-2.396,-1.07,-2.396,-2.393l0,-0.002" fill="#E6E6E6"/>
    <circle  r="1.197" cx="19.022" cy="27.057" fill="#383838"/>
   </g>
   <g  id="C2pin">
    <path  d="M16.627,34.256c0,-1.319,1.071,-2.394,2.395,-2.394c1.32,0,2.394,1.072,2.394,2.394" fill="#BFBFBF"/>
    <path  d="M21.414,34.256c0,1.322,-1.07,2.396,-2.393,2.396c-1.323,0,-2.396,-1.069,-2.396,-2.393c0,-0.002,0,-0.002,0,-0.004" fill="#E6E6E6"/>
    <circle  r="1.196" cx="19.022" cy="34.257" fill="#383838"/>
   </g>
   <g  id="D2pin">
    <path  d="M16.627,41.457c0,-1.322,1.071,-2.396,2.395,-2.396c1.32,0,2.394,1.072,2.394,2.396" fill="#BFBFBF"/>
    <path  d="M21.414,41.457c0,1.321,-1.07,2.396,-2.393,2.396c-1.323,0,-2.396,-1.07,-2.396,-2.394l0,-0.002" fill="#E6E6E6"/>
    <circle  r="1.197" cx="19.022" cy="41.457" fill="#383838"/>
   </g>
   <g  id="E2pin">
    <path  d="M16.627,48.657c0,-1.322,1.071,-2.394,2.395,-2.394c1.32,0,2.394,1.07,2.394,2.394" fill="#BFBFBF"/>
    <path  d="M21.414,48.657c0,1.322,-1.07,2.395,-2.393,2.395c-1.322,0.002,-2.396,-1.07,-2.396,-2.391c0,-0.002,0,-0.002,0,-0.004" fill="#E6E6E6"/>
    <circle  r="1.197" cx="19.022" cy="48.657" fill="#383838"/>
   </g>
   <g  id="A3pin">
    <path  d="M23.826,19.858c0,-1.322,1.072,-2.396,2.395,-2.396c1.321,0,2.395,1.072,2.395,2.396" fill="#BFBFBF"/>
    <path  d="M28.615,19.858c0,1.319,-1.072,2.393,-2.395,2.393c-1.321,0,-2.395,-1.072,-2.395,-2.393l0,0" fill="#E6E6E6"/>
    <circle  r="1.196" cx="26.221" cy="19.857" fill="#383838"/>
   </g>
   <g  id="B3pin">
    <path  d="M23.826,27.058c0,-1.322,1.072,-2.396,2.395,-2.396c1.321,0,2.395,1.071,2.395,2.396" fill="#BFBFBF"/>
    <path  d="M28.615,27.058c0,1.321,-1.072,2.393,-2.395,2.393c-1.321,0,-2.395,-1.07,-2.395,-2.393" fill="#E6E6E6"/>
    <circle  r="1.197" cx="26.221" cy="27.057" fill="#383838"/>
   </g>
   <g  id="C3pin">
    <path  d="M23.826,34.256c0,-1.319,1.072,-2.394,2.395,-2.394c1.321,0,2.395,1.072,2.395,2.394" fill="#BFBFBF"/>
    <path  d="M28.615,34.256c0,1.322,-1.072,2.396,-2.395,2.396c-1.321,0,-2.395,-1.072,-2.395,-2.396l0,0" fill="#E6E6E6"/>
    <circle  r="1.196" cx="26.221" cy="34.257" fill="#383838"/>
   </g>
   <g  id="D3pin">
    <path  d="M23.826,41.457c0,-1.322,1.072,-2.396,2.395,-2.396c1.321,0,2.395,1.072,2.395,2.396" fill="#BFBFBF"/>
    <path  d="M28.615,41.457c0,1.321,-1.072,2.394,-2.395,2.394c-1.321,0,-2.395,-1.07,-2.395,-2.394" fill="#E6E6E6"/>
    <circle  r="1.197" cx="26.221" cy="41.457" fill="#383838"/>
   </g>
   <g  id="E3pin">
    <path  d="M23.826,48.657c0,-1.322,1.072,-2.394,2.395,-2.394c1.321,0,2.395,1.07,2.395,2.394" fill="#BFBFBF"/>
    <path  d="M28.615,48.657c0,1.322,-1.072,2.395,-2.395,2.395c-1.321,0,-2.395,-1.072,-2.395,-2.395" fill="#E6E6E6"/>
    <circle  r="1.197" cx="26.221" cy="48.657" fill="#383838"/>
   </g>
   <g  id="A4pin">
    <path  d="M31.028,19.858c0,-1.322,1.072,-2.396,2.394,-2.396c1.322,0,2.395,1.072,2.395,2.396" fill="#BFBFBF"/>
    <path  d="M35.815,19.858c0,1.319,-1.071,2.393,-2.395,2.393c-1.32,0,-2.394,-1.072,-2.394,-2.393l0,0" fill="#E6E6E6"/>
    <circle  r="1.196" cx="33.42" cy="19.857" fill="#383838"/>
   </g>
   <g  id="B4pin">
    <path  d="M31.028,27.058c0,-1.322,1.072,-2.396,2.394,-2.396c1.322,0,2.395,1.071,2.395,2.396" fill="#BFBFBF"/>
    <path  d="M35.815,27.058c0,1.321,-1.071,2.393,-2.395,2.393c-1.32,0,-2.394,-1.07,-2.394,-2.393" fill="#E6E6E6"/>
    <circle  r="1.197" cx="33.42" cy="27.057" fill="#383838"/>
   </g>
   <g  id="C4pin">
    <path  d="M31.028,34.256c0,-1.319,1.072,-2.394,2.394,-2.394c1.322,0,2.395,1.072,2.395,2.394" fill="#BFBFBF"/>
    <path  d="M35.815,34.256c0,1.322,-1.071,2.396,-2.395,2.396c-1.32,0,-2.394,-1.072,-2.394,-2.396l0,0" fill="#E6E6E6"/>
    <circle  r="1.196" cx="33.42" cy="34.257" fill="#383838"/>
   </g>
   <g  id="D4pin">
    <path  d="M31.028,41.457c0,-1.322,1.072,-2.396,2.394,-2.396c1.322,0,2.395,1.072,2.395,2.396" fill="#BFBFBF"/>
    <path  d="M35.815,41.457c0,1.321,-1.071,2.394,-2.395,2.394c-1.32,0,-2.394,-1.07,-2.394,-2.394" fill="#E6E6E6"/>
    <circle  r="1.197" cx="33.42" cy="41.457" fill="#383838"/>
   </g>
   <g  id="E4pin">
    <path  d="M31.028,48.657c0,-1.322,1.072,-2.394,2.394,-2.394c1.322,0,2.395,1.07,2.395,2.394" fill="#BFBFBF"/>
    <path  d="M35.815,48.657c0,1.322,-1.071,2.395,-2.395,2.395c-1.32,0,-2.394,-1.072,-2.394,-2.395" fill="#E6E6E6"/>
    <circle  r="1.197" cx="33.42" cy="48.657" fill="#383838"/>
   </g>
   <g  id="A5pin">
    <path  d="M38.228,19.858c0,-1.322,1.07,-2.396,2.394,-2.396c1.324,0,2.395,1.072,2.395,2.396" fill="#BFBFBF"/>
    <path  d="M43.015,19.858c0,1.319,-1.071,2.393,-2.395,2.393c-1.324,0,-2.394,-1.072,-2.394,-2.393l0,0" fill="#E6E6E6"/>
    <circle  r="1.196" cx="40.62" cy="19.857" fill="#383838"/>
   </g>
   <g  id="B5pin">
    <path  d="M38.228,27.058c0,-1.322,1.07,-2.396,2.394,-2.396c1.324,0,2.395,1.071,2.395,2.396" fill="#BFBFBF"/>
    <path  d="M43.015,27.058c0,1.321,-1.071,2.393,-2.395,2.393c-1.324,0,-2.394,-1.07,-2.394,-2.393" fill="#E6E6E6"/>
    <circle  r="1.197" cx="40.62" cy="27.057" fill="#383838"/>
   </g>
   <g  id="C5pin">
    <path  d="M38.228,34.256c0,-1.319,1.07,-2.394,2.394,-2.394c1.324,0,2.395,1.072,2.395,2.394" fill="#BFBFBF"/>
    <path  d="M43.015,34.256c0,1.322,-1.071,2.396,-2.395,2.396c-1.324,0,-2.394,-1.072,-2.394,-2.396l0,0" fill="#E6E6E6"/>
    <circle  r="1.196" cx="40.62" cy="34.257" fill="#383838"/>
   </g>
   <g  id="D5pin">
    <path  d="M38.228,41.457c0,-1.322,1.07,-2.396,2.394,-2.396c1.324,0,2.395,1.072,2.395,2.396" fill="#BFBFBF"/>
    <path  d="M43.015,41.457c0,1.321,-1.071,2.394,-2.395,2.394c-1.324,0,-2.394,-1.07,-2.394,-2.394" fill="#E6E6E6"/>
    <circle  r="1.197" cx="40.62" cy="41.457" fill="#383838"/>
   </g>
   <g  id="E5pin">
    <path  d="M38.228,48.657c0,-1.322,1.07,-2.394,2.394,-2.394c1.324,0,2.395,1.07,2.395,2.394" fill="#BFBFBF"/>
    <path  d="M43.015,48.657c0,1.322,-1.071,2.395,-2.395,2.395c-1.324,0,-2.394,-1.072,-2.394,-2.395" fill="#E6E6E6"/>
    <circle  r="1.197" cx="40.62" cy="48.657" fill="#383838"/>
   </g>
   <g  id="A6pin">
    <path  d="M45.427,19.858c0,-1.322,1.071,-2.396,2.395,-2.396c1.324,0,2.394,1.072,2.394,2.396" fill="#BFBFBF"/>
    <path  d="M50.214,19.858c0,1.319,-1.07,2.393,-2.394,2.393c-1.324,0,-2.395,-1.072,-2.395,-2.393l0,0" fill="#E6E6E6"/>
    <circle  r="1.196" cx="47.822" cy="19.857" fill="#383838"/>
   </g>
   <g  id="B6pin">
    <path  d="M45.427,27.058c0,-1.322,1.071,-2.396,2.395,-2.396c1.324,0,2.394,1.071,2.394,2.396" fill="#BFBFBF"/>
    <path  d="M50.214,27.058c0,1.321,-1.07,2.393,-2.394,2.393c-1.324,0,-2.395,-1.07,-2.395,-2.393" fill="#E6E6E6"/>
    <circle  r="1.197" cx="47.822" cy="27.057" fill="#383838"/>
   </g>
   <g  id="C6pin">
    <path  d="M45.427,34.256c0,-1.319,1.071,-2.394,2.395,-2.394c1.324,0,2.394,1.072,2.394,2.394" fill="#BFBFBF"/>
    <path  d="M50.214,34.256c0,1.322,-1.07,2.396,-2.394,2.396c-1.324,0,-2.395,-1.072,-2.395,-2.396l0,0" fill="#E6E6E6"/>
    <circle  r="1.196" cx="47.822" cy="34.257" fill="#383838"/>
   </g>
   <g  id="D6pin">
    <path  d="M45.427,41.457c0,-1.322,1.071,-2.396,2.395,-2.396c1.324,0,2.394,1.072,2.394,2.396" fill="#BFBFBF"/>
    <path  d="M50.214,41.457c0,1.321,-1.07,2.394,-2.394,2.394c-1.324,0,-2.395,-1.07,-2.395,-2.394" fill="#E6E6E6"/>
    <circle  r="1.197" cx="47.822" cy="41.457" fill="#383838"/>
   </g>
   <g  id="E6pin">
    <path  d="M45.427,48.657c0,-1.322,1.071,-2.394,2.395,-2.394c1.324,0,2.394,1.07,2.394,2.394" fill="#BFBFBF"/>
    <path  d="M50.214,48.657c0,1.322,-1.07,2.395,-2.394,2.395c-1.324,0,-2.395,-1.072,-2.395,-2.395" fill="#E6E6E6"/>
    <circle  r="1.197" cx="47.822" cy="48.657" fill="#383838"/>
   </g>
   <g  id="A7pin">
    <path  d="M52.627,19.858c0,-1.322,1.071,-2.396,2.395,-2.396c1.32,0,2.394,1.072,2.394,2.396" fill="#BFBFBF"/>
    <path  d="M57.414,19.858c0,1.319,-1.072,2.393,-2.394,2.393s-2.395,-1.072,-2.395,-2.393l0,0" fill="#E6E6E6"/>
    <circle  r="1.196" cx="55.022" cy="19.857" fill="#383838"/>
   </g>
   <g  id="B7pin">
    <path  d="M52.627,27.058c0,-1.322,1.071,-2.396,2.395,-2.396c1.32,0,2.394,1.071,2.394,2.396" fill="#BFBFBF"/>
    <path  d="M57.414,27.058c0,1.321,-1.072,2.393,-2.394,2.393s-2.395,-1.07,-2.395,-2.393" fill="#E6E6E6"/>
    <circle  r="1.197" cx="55.022" cy="27.057" fill="#383838"/>
   </g>
   <g  id="C7pin">
    <path  d="M52.627,34.256c0,-1.319,1.071,-2.394,2.395,-2.394c1.32,0,2.394,1.072,2.394,2.394" fill="#BFBFBF"/>
    <path  d="M57.414,34.256c0,1.322,-1.072,2.396,-2.394,2.396s-2.395,-1.072,-2.395,-2.396l0,0" fill="#E6E6E6"/>
    <circle  r="1.196" cx="55.022" cy="34.257" fill="#383838"/>
   </g>
   <g  id="D7pin">
    <path  d="M52.627,41.457c0,-1.322,1.071,-2.396,2.395,-2.396c1.32,0,2.394,1.072,2.394,2.396" fill="#BFBFBF"/>
    <path  d="M57.414,41.457c0,1.321,-1.072,2.394,-2.394,2.394s-2.395,-1.07,-2.395,-2.394" fill="#E6E6E6"/>
    <circle  r="1.197" cx="55.022" cy="41.457" fill="#383838"/>
   </g>
   <g  id="E7pin">
    <path  d="M52.627,48.657c0,-1.322,1.071,-2.394,2.395,-2.394c1.32,0,2.394,1.07,2.394,2.394" fill="#BFBFBF"/>
    <path  d="M57.414,48.657c0,1.322,-1.072,2.395,-2.394,2.395s-2.395,-1.072,-2.395,-2.395" fill="#E6E6E6"/>
    <circle  r="1.197" cx="55.022" cy="48.657" fill="#383838"/>
   </g>
   <g  id="A8pin">
    <path  d="M59.826,19.858c0,-1.322,1.072,-2.396,2.395,-2.396c1.321,0,2.393,1.072,2.393,2.396" fill="#BFBFBF"/>
    <path  d="M64.614,19.858c0,1.319,-1.07,2.393,-2.393,2.393c-1.323,0,-2.395,-1.072,-2.395,-2.393l0,0" fill="#E6E6E6"/>
    <circle  r="1.196" cx="62.221" cy="19.857" fill="#383838"/>
   </g>
   <g  id="B8pin">
    <path  d="M59.826,27.058c0,-1.322,1.072,-2.396,2.395,-2.396c1.321,0,2.393,1.071,2.393,2.396" fill="#BFBFBF"/>
    <path  d="M64.614,27.058c0,1.321,-1.07,2.393,-2.393,2.393c-1.323,0,-2.395,-1.07,-2.395,-2.393" fill="#E6E6E6"/>
    <circle  r="1.197" cx="62.221" cy="27.057" fill="#383838"/>
   </g>
   <g  id="C8pin">
    <path  d="M59.826,34.256c0,-1.319,1.072,-2.394,2.395,-2.394c1.321,0,2.393,1.072,2.393,2.394" fill="#BFBFBF"/>
    <path  d="M64.614,34.256c0,1.322,-1.07,2.396,-2.393,2.396c-1.323,0,-2.395,-1.072,-2.395,-2.396l0,0" fill="#E6E6E6"/>
    <circle  r="1.196" cx="62.221" cy="34.257" fill="#383838"/>
   </g>
   <g  id="D8pin">
    <path  d="M59.826,41.457c0,-1.322,1.072,-2.396,2.395,-2.396c1.321,0,2.393,1.072,2.393,2.396" fill="#BFBFBF"/>
    <path  d="M64.614,41.457c0,1.321,-1.07,2.394,-2.393,2.394c-1.323,0,-2.395,-1.07,-2.395,-2.394" fill="#E6E6E6"/>
    <circle  r="1.197" cx="62.221" cy="41.457" fill="#383838"/>
   </g>
   <g  id="E8pin">
    <path  d="M59.826,48.657c0,-1.322,1.072,-2.394,2.395,-2.394c1.321,0,2.393,1.07,2.393,2.394" fill="#BFBFBF"/>
    <path  d="M64.614,48.657c0,1.322,-1.07,2.395,-2.393,2.395c-1.323,0,-2.395,-1.072,-2.395,-2.395" fill="#E6E6E6"/>
    <circle  r="1.197" cx="62.221" cy="48.657" fill="#383838"/>
   </g>
   <g  id="A9pin">
    <path  d="M67.028,19.858c0,-1.322,1.072,-2.396,2.393,-2.396c1.323,0,2.396,1.072,2.396,2.396" fill="#BFBFBF"/>
    <path  d="M71.815,19.858c0,1.319,-1.071,2.393,-2.396,2.393c-1.319,0,-2.393,-1.072,-2.393,-2.393l0,0" fill="#E6E6E6"/>
    <circle  r="1.196" cx="69.42" cy="19.857" fill="#383838"/>
   </g>
   <g  id="B9pin">
    <path  d="M67.028,27.058c0,-1.322,1.072,-2.396,2.393,-2.396c1.323,0,2.396,1.071,2.396,2.396" fill="#BFBFBF"/>
    <path  d="M71.815,27.058c0,1.321,-1.071,2.393,-2.396,2.393c-1.319,0,-2.393,-1.07,-2.393,-2.393" fill="#E6E6E6"/>
    <circle  r="1.197" cx="69.42" cy="27.057" fill="#383838"/>
   </g>
   <g  id="C9pin">
    <path  d="M67.028,34.256c0,-1.319,1.072,-2.394,2.393,-2.394c1.323,0,2.396,1.072,2.396,2.394" fill="#BFBFBF"/>
    <path  d="M71.815,34.256c0,1.322,-1.071,2.396,-2.396,2.396c-1.319,0,-2.393,-1.072,-2.393,-2.396l0,0" fill="#E6E6E6"/>
    <circle  r="1.196" cx="69.42" cy="34.257" fill="#383838"/>
   </g>
   <g  id="D9pin">
    <path  d="M67.028,41.457c0,-1.322,1.072,-2.396,2.393,-2.396c1.323,0,2.396,1.072,2.396,2.396" fill="#BFBFBF"/>
    <path  d="M71.815,41.457c0,1.321,-1.071,2.394,-2.396,2.394c-1.319,0,-2.393,-1.07,-2.393,-2.394" fill="#E6E6E6"/>
    <circle  r="1.197" cx="69.42" cy="41.457" fill="#383838"/>
   </g>
   <g  id="E9pin">
    <path  d="M67.028,48.657c0,-1.322,1.072,-2.394,2.393,-2.394c1.323,0,2.396,1.07,2.396,2.394" fill="#BFBFBF"/>
    <path  d="M71.815,48.657c0,1.322,-1.071,2.395,-2.396,2.395c-1.319,0,-2.393,-1.072,-2.393,-2.395" fill="#E6E6E6"/>
    <circle  r="1.197" cx="69.42" cy="48.657" fill="#383838"/>
   </g>
   <g  id="A10pin">
    <path  d="M74.227,19.858c0,-1.322,1.071,-2.396,2.396,-2.396c1.323,0,2.394,1.072,2.394,2.396" fill="#BFBFBF"/>
    <path  d="M79.014,19.858c0,1.319,-1.07,2.393,-2.394,2.393c-1.324,0,-2.396,-1.072,-2.396,-2.393l0,0" fill="#E6E6E6"/>
    <circle  r="1.196" cx="76.621" cy="19.857" fill="#383838"/>
   </g>
   <g  id="B10pin">
    <path  d="M74.227,27.058c0,-1.322,1.071,-2.396,2.396,-2.396c1.323,0,2.394,1.071,2.394,2.396" fill="#BFBFBF"/>
    <path  d="M79.014,27.058c0,1.321,-1.07,2.393,-2.394,2.393c-1.324,0,-2.396,-1.07,-2.396,-2.393" fill="#E6E6E6"/>
    <circle  r="1.197" cx="76.621" cy="27.057" fill="#383838"/>
   </g>
   <g  id="C10pin">
    <path  d="M74.227,34.256c0,-1.319,1.071,-2.394,2.396,-2.394c1.323,0,2.394,1.072,2.394,2.394" fill="#BFBFBF"/>
    <path  d="M79.014,34.256c0,1.322,-1.07,2.396,-2.394,2.396c-1.324,0,-2.396,-1.072,-2.396,-2.396l0,0" fill="#E6E6E6"/>
    <circle  r="1.196" cx="76.621" cy="34.257" fill="#383838"/>
   </g>
   <g  id="D10pin">
    <path  d="M74.227,41.457c0,-1.322,1.071,-2.396,2.396,-2.396c1.323,0,2.394,1.072,2.394,2.396" fill="#BFBFBF"/>
    <path  d="M79.014,41.457c0,1.321,-1.07,2.394,-2.394,2.394c-1.324,0,-2.396,-1.07,-2.396,-2.394" fill="#E6E6E6"/>
    <circle  r="1.197" cx="76.621" cy="41.457" fill="#383838"/>
   </g>
   <g  id="E10pin">
    <path  d="M74.227,48.657c0,-1.322,1.071,-2.394,2.396,-2.394c1.323,0,2.394,1.07,2.394,2.394" fill="#BFBFBF"/>
    <path  d="M79.014,48.657c0,1.322,-1.07,2.395,-2.394,2.395c-1.324,0,-2.396,-1.072,-2.396,-2.395" fill="#E6E6E6"/>
    <circle  r="1.197" cx="76.621" cy="48.657" fill="#383838"/>
   </g>
   <g  id="A11pin">
    <path  d="M81.428,19.858c0,-1.322,1.069,-2.396,2.394,-2.396s2.395,1.072,2.395,2.396" fill="#BFBFBF"/>
    <path  d="M86.214,19.858c0,1.319,-1.07,2.393,-2.395,2.393s-2.395,-1.072,-2.395,-2.393l0,0" fill="#E6E6E6"/>
    <circle  r="1.196" cx="83.821" cy="19.857" fill="#383838"/>
   </g>
   <g  id="B11pin">
    <path  d="M81.428,27.058c0,-1.322,1.069,-2.396,2.394,-2.396s2.395,1.071,2.395,2.396" fill="#BFBFBF"/>
    <path  d="M86.214,27.058c0,1.321,-1.07,2.393,-2.395,2.393s-2.395,-1.07,-2.395,-2.393" fill="#E6E6E6"/>
    <circle  r="1.197" cx="83.821" cy="27.057" fill="#383838"/>
   </g>
   <g  id="C11pin">
    <path  d="M81.428,34.256c0,-1.319,1.069,-2.394,2.394,-2.394s2.395,1.072,2.395,2.394" fill="#BFBFBF"/>
    <path  d="M86.214,34.256c0,1.322,-1.07,2.396,-2.395,2.396s-2.395,-1.072,-2.395,-2.396l0,0" fill="#E6E6E6"/>
    <circle  r="1.196" cx="83.821" cy="34.257" fill="#383838"/>
   </g>
   <g  id="D11pin">
    <path  d="M81.428,41.457c0,-1.322,1.069,-2.396,2.394,-2.396s2.395,1.072,2.395,2.396" fill="#BFBFBF"/>
    <path  d="M86.214,41.457c0,1.321,-1.07,2.394,-2.395,2.394s-2.395,-1.07,-2.395,-2.394" fill="#E6E6E6"/>
    <circle  r="1.197" cx="83.821" cy="41.457" fill="#383838"/>
   </g>
   <g  id="E11pin">
    <path  d="M81.428,48.657c0,-1.322,1.069,-2.394,2.394,-2.394s2.395,1.07,2.395,2.394" fill="#BFBFBF"/>
    <path  d="M86.214,48.657c0,1.322,-1.07,2.395,-2.395,2.395s-2.395,-1.072,-2.395,-2.395" fill="#E6E6E6"/>
    <circle  r="1.197" cx="83.821" cy="48.657" fill="#383838"/>
   </g>
   <g  id="A12pin">
    <path  d="M88.626,19.858c0,-1.322,1.072,-2.396,2.396,-2.396c1.318,0,2.393,1.072,2.393,2.396" fill="#BFBFBF"/>
    <path  d="M93.414,19.858c0,1.319,-1.072,2.393,-2.393,2.393c-1.322,0,-2.396,-1.072,-2.396,-2.393l0,0" fill="#E6E6E6"/>
    <circle  r="1.196" cx="91.022" cy="19.857" fill="#383838"/>
   </g>
   <g  id="B12pin">
    <path  d="M88.626,27.058c0,-1.322,1.072,-2.396,2.396,-2.396c1.318,0,2.393,1.071,2.393,2.396" fill="#BFBFBF"/>
    <path  d="M93.414,27.058c0,1.321,-1.072,2.393,-2.393,2.393c-1.322,0,-2.396,-1.07,-2.396,-2.393" fill="#E6E6E6"/>
    <circle  r="1.197" cx="91.022" cy="27.057" fill="#383838"/>
   </g>
   <g  id="C12pin">
    <path  d="M88.626,34.256c0,-1.319,1.072,-2.394,2.396,-2.394c1.318,0,2.393,1.072,2.393,2.394" fill="#BFBFBF"/>
    <path  d="M93.414,34.256c0,1.322,-1.072,2.396,-2.393,2.396c-1.322,0,-2.396,-1.072,-2.396,-2.396l0,0" fill="#E6E6E6"/>
    <circle  r="1.196" cx="91.022" cy="34.257" fill="#383838"/>
   </g>
   <g  id="D12pin">
    <path  d="M88.626,41.457c0,-1.322,1.072,-2.396,2.396,-2.396c1.318,0,2.393,1.072,2.393,2.396" fill="#BFBFBF"/>
    <path  d="M93.414,41.457c0,1.321,-1.072,2.394,-2.393,2.394c-1.322,0,-2.396,-1.07,-2.396,-2.394" fill="#E6E6E6"/>
    <circle  r="1.197" cx="91.022" cy="41.457" fill="#383838"/>
   </g>
   <g  id="E12pin">
    <path  d="M88.626,48.657c0,-1.322,1.072,-2.394,2.396,-2.394c1.318,0,2.393,1.07,2.393,2.394" fill="#BFBFBF"/>
    <path  d="M93.414,48.657c0,1.322,-1.072,2.395,-2.393,2.395c-1.322,0,-2.396,-1.072,-2.396,-2.395" fill="#E6E6E6"/>
    <circle  r="1.197" cx="91.022" cy="48.657" fill="#383838"/>
   </g>
   <g  id="A13pin">
    <path  d="M95.826,19.858c0,-1.322,1.072,-2.396,2.396,-2.396c1.322,0,2.393,1.072,2.393,2.396" fill="#BFBFBF"/>
    <path  d="M100.614,19.858c0,1.319,-1.069,2.393,-2.393,2.393s-2.396,-1.072,-2.396,-2.393l0,0" fill="#E6E6E6"/>
    <circle  r="1.196" cx="98.221" cy="19.857" fill="#383838"/>
   </g>
   <g  id="B13pin">
    <path  d="M95.826,27.058c0,-1.322,1.072,-2.396,2.396,-2.396c1.322,0,2.393,1.071,2.393,2.396" fill="#BFBFBF"/>
    <path  d="M100.614,27.058c0,1.321,-1.069,2.393,-2.393,2.393s-2.396,-1.07,-2.396,-2.393" fill="#E6E6E6"/>
    <circle  r="1.197" cx="98.221" cy="27.057" fill="#383838"/>
   </g>
   <g  id="C13pin">
    <path  d="M95.826,34.256c0,-1.319,1.072,-2.394,2.396,-2.394c1.322,0,2.393,1.072,2.393,2.394" fill="#BFBFBF"/>
    <path  d="M100.614,34.256c0,1.322,-1.069,2.396,-2.393,2.396s-2.396,-1.072,-2.396,-2.396l0,0" fill="#E6E6E6"/>
    <circle  r="1.196" cx="98.221" cy="34.257" fill="#383838"/>
   </g>
   <g  id="D13pin">
    <path  d="M95.826,41.457c0,-1.322,1.072,-2.396,2.396,-2.396c1.322,0,2.393,1.072,2.393,2.396" fill="#BFBFBF"/>
    <path  d="M100.614,41.457c0,1.321,-1.069,2.394,-2.393,2.394s-2.396,-1.07,-2.396,-2.394" fill="#E6E6E6"/>
    <circle  r="1.197" cx="98.221" cy="41.457" fill="#383838"/>
   </g>
   <g  id="E13pin">
    <path  d="M95.826,48.657c0,-1.322,1.072,-2.394,2.396,-2.394c1.322,0,2.393,1.07,2.393,2.394" fill="#BFBFBF"/>
    <path  d="M100.614,48.657c0,1.322,-1.069,2.395,-2.393,2.395s-2.396,-1.072,-2.396,-2.395" fill="#E6E6E6"/>
    <circle  r="1.197" cx="98.221" cy="48.657" fill="#383838"/>
   </g>
   <g  id="A14pin">
    <path  d="M103.028,19.858c0,-1.322,1.07,-2.396,2.394,-2.396c1.322,0,2.396,1.072,2.396,2.396" fill="#BFBFBF"/>
    <path  d="M107.815,19.858c0,1.319,-1.071,2.393,-2.396,2.393c-1.322,0,-2.394,-1.072,-2.394,-2.393l0,0" fill="#E6E6E6"/>
    <circle  r="1.196" cx="105.419" cy="19.857" fill="#383838"/>
   </g>
   <g  id="B14pin">
    <path  d="M103.028,27.058c0,-1.322,1.07,-2.396,2.394,-2.396c1.322,0,2.396,1.071,2.396,2.396" fill="#BFBFBF"/>
    <path  d="M107.815,27.058c0,1.321,-1.071,2.393,-2.396,2.393c-1.322,0,-2.394,-1.07,-2.394,-2.393" fill="#E6E6E6"/>
    <circle  r="1.197" cx="105.419" cy="27.057" fill="#383838"/>
   </g>
   <g  id="C14pin">
    <path  d="M103.028,34.256c0,-1.319,1.07,-2.394,2.394,-2.394c1.322,0,2.396,1.072,2.396,2.394" fill="#BFBFBF"/>
    <path  d="M107.815,34.256c0,1.322,-1.071,2.396,-2.396,2.396c-1.322,0,-2.394,-1.072,-2.394,-2.396l0,0" fill="#E6E6E6"/>
    <circle  r="1.196" cx="105.419" cy="34.257" fill="#383838"/>
   </g>
   <g  id="D14pin">
    <path  d="M103.028,41.457c0,-1.322,1.07,-2.396,2.394,-2.396c1.322,0,2.396,1.072,2.396,2.396" fill="#BFBFBF"/>
    <path  d="M107.815,41.457c0,1.321,-1.071,2.394,-2.396,2.394c-1.322,0,-2.394,-1.07,-2.394,-2.394" fill="#E6E6E6"/>
    <circle  r="1.197" cx="105.419" cy="41.457" fill="#383838"/>
   </g>
   <g  id="E14pin">
    <path  d="M103.028,48.657c0,-1.322,1.07,-2.394,2.394,-2.394c1.322,0,2.396,1.07,2.396,2.394" fill="#BFBFBF"/>
    <path  d="M107.815,48.657c0,1.322,-1.071,2.395,-2.396,2.395c-1.322,0,-2.394,-1.072,-2.394,-2.395" fill="#E6E6E6"/>
    <circle  r="1.197" cx="105.419" cy="48.657" fill="#383838"/>
   </g>
   <g  id="A15pin">
    <path  d="M110.227,19.858c0.002,-1.322,1.075,-2.394,2.397,-2.392c1.317,0.002,2.387,1.07,2.39,2.392" fill="#BFBFBF"/>
    <path  d="M115.014,19.858c0.002,1.319,-1.068,2.395,-2.39,2.396c-1.322,0.002,-2.396,-1.067,-2.397,-2.392c0,-0.002,0,-0.004,0,-0.006" fill="#E6E6E6"/>
    <circle  r="1.196" cx="112.621" cy="19.857" fill="#383838"/>
   </g>
   <g  id="B15pin">
    <path  d="M110.227,27.058c0.002,-1.322,1.075,-2.394,2.397,-2.392c1.317,0.002,2.387,1.071,2.39,2.392" fill="#BFBFBF"/>
    <path  d="M115.014,27.058c0.002,1.321,-1.068,2.395,-2.39,2.396c-1.322,0.002,-2.396,-1.068,-2.397,-2.39c0,-0.004,0,-0.006,0,-0.008" fill="#E6E6E6"/>
    <circle  r="1.197" cx="112.621" cy="27.057" fill="#383838"/>
   </g>
   <g  id="C15pin">
    <path  d="M110.227,34.256c0.002,-1.319,1.075,-2.392,2.397,-2.39c1.317,0.003,2.387,1.07,2.39,2.39" fill="#BFBFBF"/>
    <path  d="M115.014,34.256c0.002,1.322,-1.068,2.396,-2.39,2.397c-1.322,0.002,-2.396,-1.067,-2.397,-2.391c0,-0.002,0,-0.004,0,-0.008" fill="#E6E6E6"/>
    <circle  r="1.196" cx="112.621" cy="34.257" fill="#383838"/>
   </g>
   <g  id="D15pin">
    <path  d="M110.227,41.457c0.002,-1.322,1.075,-2.394,2.397,-2.392c1.317,0.002,2.387,1.07,2.39,2.392" fill="#BFBFBF"/>
    <path  d="M115.014,41.457c0.002,1.321,-1.068,2.396,-2.39,2.396c-1.322,0.002,-2.396,-1.067,-2.397,-2.391c0,-0.002,0,-0.004,0,-0.006" fill="#E6E6E6"/>
    <circle  r="1.197" cx="112.621" cy="41.457" fill="#383838"/>
   </g>
   <g  id="E15pin">
    <path  d="M110.227,48.657c0.002,-1.322,1.075,-2.394,2.397,-2.391c1.317,0.002,2.387,1.071,2.39,2.391" fill="#BFBFBF"/>
    <path  d="M115.014,48.657c0.002,1.322,-1.068,2.395,-2.39,2.396c-1.322,0.005,-2.396,-1.065,-2.397,-2.389c0,-0.002,0,-0.007,0,-0.009" fill="#E6E6E6"/>
    <circle  r="1.197" cx="112.621" cy="48.657" fill="#383838"/>
   </g>
   <g  id="A16pin">
    <path  d="M117.428,19.858c0.003,-1.322,1.073,-2.394,2.396,-2.392c1.318,0.002,2.389,1.07,2.391,2.392" fill="#BFBFBF"/>
    <path  d="M122.214,19.858c0.002,1.319,-1.066,2.395,-2.391,2.396s-2.395,-1.067,-2.396,-2.392c0,-0.002,0,-0.004,0,-0.006" fill="#E6E6E6"/>
    <circle  r="1.196" cx="119.821" cy="19.857" fill="#383838"/>
   </g>
   <g  id="B16pin">
    <path  d="M117.428,27.058c0.003,-1.322,1.073,-2.394,2.396,-2.392c1.318,0.002,2.389,1.071,2.391,2.392" fill="#BFBFBF"/>
    <path  d="M122.214,27.058c0.002,1.321,-1.066,2.395,-2.391,2.396s-2.395,-1.068,-2.396,-2.39c0,-0.004,0,-0.006,0,-0.008" fill="#E6E6E6"/>
    <circle  r="1.197" cx="119.821" cy="27.057" fill="#383838"/>
   </g>
   <g  id="C16pin">
    <path  d="M117.428,34.256c0.003,-1.319,1.073,-2.392,2.396,-2.39c1.318,0.003,2.389,1.07,2.391,2.39" fill="#BFBFBF"/>
    <path  d="M122.214,34.256c0.002,1.322,-1.066,2.396,-2.391,2.397s-2.395,-1.067,-2.396,-2.391c0,-0.002,0,-0.004,0,-0.008" fill="#E6E6E6"/>
    <circle  r="1.196" cx="119.821" cy="34.257" fill="#383838"/>
   </g>
   <g  id="D16pin">
    <path  d="M117.428,41.457c0.003,-1.322,1.073,-2.394,2.396,-2.392c1.318,0.002,2.389,1.07,2.391,2.392" fill="#BFBFBF"/>
    <path  d="M122.214,41.457c0.002,1.321,-1.066,2.396,-2.391,2.396c-1.322,0.002,-2.395,-1.067,-2.396,-2.391c0,-0.002,0,-0.004,0,-0.006" fill="#E6E6E6"/>
    <circle  r="1.197" cx="119.821" cy="41.457" fill="#383838"/>
   </g>
   <g  id="E16pin">
    <path  d="M117.428,48.657c0.003,-1.322,1.073,-2.394,2.396,-2.391c1.318,0.002,2.389,1.071,2.391,2.391" fill="#BFBFBF"/>
    <path  d="M122.214,48.657c0.002,1.322,-1.066,2.395,-2.391,2.396c-1.322,0.005,-2.395,-1.065,-2.396,-2.389c0,-0.002,0,-0.007,0,-0.009" fill="#E6E6E6"/>
    <circle  r="1.197" cx="119.821" cy="48.657" fill="#383838"/>
   </g>
   <g  id="A17pin">
    <path  d="M124.626,19.858c0.002,-1.322,1.074,-2.394,2.396,-2.392c1.318,0.002,2.389,1.07,2.391,2.392" fill="#BFBFBF"/>
    <path  d="M129.414,19.858c0.002,1.319,-1.067,2.395,-2.392,2.396c-1.321,0.002,-2.396,-1.067,-2.396,-2.392c0,-0.002,0,-0.004,0,-0.006" fill="#E6E6E6"/>
    <circle  r="1.196" cx="127.02" cy="19.857" fill="#383838"/>
   </g>
   <g  id="B17pin">
    <path  d="M124.626,27.058c0.002,-1.322,1.074,-2.394,2.396,-2.392c1.318,0.002,2.389,1.071,2.391,2.392" fill="#BFBFBF"/>
    <path  d="M129.414,27.058c0.002,1.321,-1.067,2.395,-2.392,2.396c-1.321,0.002,-2.396,-1.068,-2.396,-2.39c0,-0.004,0,-0.006,0,-0.008" fill="#E6E6E6"/>
    <circle  r="1.197" cx="127.02" cy="27.057" fill="#383838"/>
   </g>
   <g  id="C17pin">
    <path  d="M124.626,34.256c0.002,-1.319,1.074,-2.392,2.396,-2.39c1.318,0.003,2.389,1.07,2.391,2.39" fill="#BFBFBF"/>
    <path  d="M129.414,34.256c0.002,1.322,-1.067,2.396,-2.392,2.397c-1.321,0.002,-2.396,-1.067,-2.396,-2.391c0,-0.002,0,-0.004,0,-0.008" fill="#E6E6E6"/>
    <circle  r="1.196" cx="127.02" cy="34.257" fill="#383838"/>
   </g>
   <g  id="D17pin">
    <path  d="M124.626,41.457c0.002,-1.322,1.074,-2.394,2.396,-2.392c1.318,0.002,2.389,1.07,2.391,2.392" fill="#BFBFBF"/>
    <path  d="M129.414,41.457c0.002,1.321,-1.067,2.396,-2.392,2.396c-1.321,0.002,-2.396,-1.067,-2.396,-2.391c0,-0.002,0,-0.004,0,-0.006" fill="#E6E6E6"/>
    <circle  r="1.197" cx="127.02" cy="41.457" fill="#383838"/>
   </g>
   <g  id="E17pin">
    <path  d="M124.626,48.657c0.002,-1.322,1.074,-2.394,2.396,-2.391c1.318,0.002,2.389,1.071,2.391,2.391" fill="#BFBFBF"/>
    <path  d="M129.414,48.657c0.002,1.322,-1.067,2.395,-2.392,2.396c-1.321,0.005,-2.396,-1.065,-2.396,-2.389c0,-0.002,0,-0.007,0,-0.009" fill="#E6E6E6"/>
    <circle  r="1.197" cx="127.02" cy="48.657" fill="#383838"/>
   </g>
   <g  id="F1pin">
    <path  d="M9.427,70.256c0,-1.32,1.071,-2.395,2.395,-2.395c1.324,0,2.394,1.07,2.394,2.395" fill="#BFBFBF"/>
    <path  d="M14.214,70.256c0,1.322,-1.07,2.396,-2.394,2.396c-1.324,0,-2.395,-1.072,-2.395,-2.396l0,0" fill="#E6E6E6"/>
    <circle  r="1.196" cx="11.822" cy="70.257" fill="#383838"/>
   </g>
   <g  id="G1pin">
    <path  d="M9.427,77.457c0,-1.322,1.071,-2.396,2.395,-2.396c1.324,0,2.394,1.072,2.394,2.396" fill="#BFBFBF"/>
    <path  d="M14.214,77.457c0,1.32,-1.07,2.395,-2.394,2.395c-1.324,0,-2.395,-1.07,-2.395,-2.395l0,0" fill="#E6E6E6"/>
    <circle  r="1.196" cx="11.822" cy="77.456" fill="#383838"/>
   </g>
   <g  id="H1pin">
    <path  d="M9.427,84.657c0,-1.322,1.071,-2.394,2.395,-2.394c1.324,0,2.394,1.069,2.394,2.394" fill="#BFBFBF"/>
    <path  d="M14.214,84.657c0,1.321,-1.07,2.395,-2.394,2.395c-1.324,0,-2.395,-1.071,-2.395,-2.395" fill="#E6E6E6"/>
    <circle  r="1.197" cx="11.822" cy="84.657" fill="#383838"/>
   </g>
   <g  id="I1pin">
    <path  d="M9.427,91.857c0,-1.321,1.071,-2.396,2.395,-2.396c1.324,0,2.394,1.072,2.394,2.396" fill="#BFBFBF"/>
    <path  d="M14.214,91.857c0,1.319,-1.07,2.394,-2.394,2.394c-1.324,0,-2.395,-1.071,-2.395,-2.394l0,0" fill="#E6E6E6"/>
    <circle  r="1.196" cx="11.822" cy="91.857" fill="#383838"/>
   </g>
   <g  id="J1pin">
    <path  d="M9.427,99.059c0,-1.322,1.071,-2.396,2.395,-2.396c1.324,0,2.394,1.07,2.394,2.396" fill="#BFBFBF"/>
    <path  d="M14.214,99.059c0,1.32,-1.07,2.393,-2.394,2.393c-1.324,0,-2.395,-1.07,-2.395,-2.393l0,0" fill="#E6E6E6"/>
    <circle  r="1.197" cx="11.822" cy="99.057" fill="#383838"/>
   </g>
   <g  id="F2pin">
    <path  d="M16.627,70.256c0,-1.32,1.071,-2.395,2.395,-2.395c1.32,0,2.394,1.07,2.394,2.395" fill="#BFBFBF"/>
    <path  d="M21.414,70.256c0,1.322,-1.07,2.396,-2.393,2.396c-1.323,0,-2.396,-1.069,-2.396,-2.394c0,-0.002,0,-0.002,0,-0.004" fill="#E6E6E6"/>
    <circle  r="1.196" cx="19.022" cy="70.257" fill="#383838"/>
   </g>
   <g  id="G2pin">
    <path  d="M16.627,77.457c0,-1.322,1.071,-2.396,2.395,-2.396c1.32,0,2.394,1.072,2.394,2.396" fill="#BFBFBF"/>
    <path  d="M21.414,77.457c0,1.32,-1.07,2.396,-2.393,2.396c-1.323,0,-2.396,-1.07,-2.396,-2.395l0,-0.002" fill="#E6E6E6"/>
    <circle  r="1.196" cx="19.022" cy="77.456" fill="#383838"/>
   </g>
   <g  id="H2pin">
    <path  d="M16.627,84.657c0,-1.322,1.071,-2.394,2.395,-2.394c1.32,0,2.394,1.069,2.394,2.394" fill="#BFBFBF"/>
    <path  d="M21.414,84.657c0,1.321,-1.07,2.395,-2.393,2.395c-1.322,0.003,-2.396,-1.069,-2.396,-2.393c0,0,0,0,0,-0.002" fill="#E6E6E6"/>
    <circle  r="1.197" cx="19.022" cy="84.657" fill="#383838"/>
   </g>
   <g  id="I2pin">
    <path  d="M16.627,91.857c0,-1.321,1.071,-2.396,2.395,-2.396c1.32,0,2.394,1.072,2.394,2.396" fill="#BFBFBF"/>
    <path  d="M21.414,91.857c0,1.319,-1.07,2.394,-2.393,2.396c-1.322,0,-2.396,-1.069,-2.396,-2.394c0,-0.002,0,-0.002,0,-0.002" fill="#E6E6E6"/>
    <circle  r="1.196" cx="19.022" cy="91.857" fill="#383838"/>
   </g>
   <g  id="J2pin">
    <path  d="M16.627,99.059c0,-1.322,1.071,-2.396,2.395,-2.396c1.32,0,2.394,1.07,2.394,2.396" fill="#BFBFBF"/>
    <path  d="M21.414,99.059c0,1.32,-1.07,2.395,-2.393,2.395c-1.323,0,-2.396,-1.07,-2.396,-2.393l0,-0.002" fill="#E6E6E6"/>
    <circle  r="1.197" cx="19.022" cy="99.057" fill="#383838"/>
   </g>
   <g  id="F3pin">
    <path  d="M23.826,70.256c0,-1.32,1.072,-2.395,2.395,-2.395c1.321,0,2.395,1.07,2.395,2.395" fill="#BFBFBF"/>
    <path  d="M28.615,70.256c0,1.322,-1.072,2.396,-2.395,2.396c-1.321,0,-2.395,-1.072,-2.395,-2.396" fill="#E6E6E6"/>
    <circle  r="1.196" cx="26.221" cy="70.257" fill="#383838"/>
   </g>
   <g  id="G3pin">
    <path  d="M23.826,77.457c0,-1.322,1.072,-2.396,2.395,-2.396c1.321,0,2.395,1.072,2.395,2.396" fill="#BFBFBF"/>
    <path  d="M28.615,77.457c0,1.32,-1.072,2.395,-2.395,2.395c-1.321,0,-2.395,-1.07,-2.395,-2.395" fill="#E6E6E6"/>
    <circle  r="1.196" cx="26.221" cy="77.456" fill="#383838"/>
   </g>
   <g  id="H3pin">
    <path  d="M23.826,84.657c0,-1.322,1.072,-2.394,2.395,-2.394c1.321,0,2.395,1.069,2.395,2.394" fill="#BFBFBF"/>
    <path  d="M28.615,84.657c0,1.321,-1.072,2.395,-2.395,2.395c-1.321,0,-2.395,-1.071,-2.395,-2.395l0,0" fill="#E6E6E6"/>
    <circle  r="1.197" cx="26.221" cy="84.657" fill="#383838"/>
   </g>
   <g  id="I3pin">
    <path  d="M23.826,91.857c0,-1.321,1.072,-2.396,2.395,-2.396c1.321,0,2.395,1.072,2.395,2.396" fill="#BFBFBF"/>
    <path  d="M28.615,91.857c0,1.319,-1.072,2.394,-2.395,2.394c-1.321,0,-2.395,-1.071,-2.395,-2.394" fill="#E6E6E6"/>
    <circle  r="1.196" cx="26.221" cy="91.857" fill="#383838"/>
   </g>
   <g  id="J3pin">
    <path  d="M23.826,99.059c0,-1.322,1.072,-2.396,2.395,-2.396c1.321,0,2.395,1.07,2.395,2.396" fill="#BFBFBF"/>
    <path  d="M28.615,99.059c0,1.32,-1.072,2.393,-2.395,2.393c-1.321,0,-2.395,-1.07,-2.395,-2.393l0,0" fill="#E6E6E6"/>
    <circle  r="1.197" cx="26.221" cy="99.057" fill="#383838"/>
   </g>
   <g  id="F4pin">
    <path  d="M31.028,70.256c0,-1.32,1.072,-2.395,2.394,-2.395c1.322,0,2.395,1.07,2.395,2.395" fill="#BFBFBF"/>
    <path  d="M35.815,70.256c0,1.322,-1.071,2.396,-2.395,2.396c-1.32,0,-2.394,-1.072,-2.394,-2.396" fill="#E6E6E6"/>
    <circle  r="1.196" cx="33.42" cy="70.257" fill="#383838"/>
   </g>
   <g  id="G4pin">
    <path  d="M31.028,77.457c0,-1.322,1.072,-2.396,2.394,-2.396c1.322,0,2.395,1.072,2.395,2.396" fill="#BFBFBF"/>
    <path  d="M35.815,77.457c0,1.32,-1.071,2.395,-2.395,2.395c-1.32,0,-2.394,-1.07,-2.394,-2.395" fill="#E6E6E6"/>
    <circle  r="1.196" cx="33.42" cy="77.456" fill="#383838"/>
   </g>
   <g  id="H4pin">
    <path  d="M31.028,84.657c0,-1.322,1.072,-2.394,2.394,-2.394c1.322,0,2.395,1.069,2.395,2.394" fill="#BFBFBF"/>
    <path  d="M35.815,84.657c0,1.321,-1.071,2.395,-2.395,2.395c-1.32,0,-2.394,-1.071,-2.394,-2.395l0,0" fill="#E6E6E6"/>
    <circle  r="1.197" cx="33.42" cy="84.657" fill="#383838"/>
   </g>
   <g  id="I4pin">
    <path  d="M31.028,91.857c0,-1.321,1.072,-2.396,2.394,-2.396c1.322,0,2.395,1.072,2.395,2.396" fill="#BFBFBF"/>
    <path  d="M35.815,91.857c0,1.319,-1.071,2.394,-2.395,2.394c-1.32,0,-2.394,-1.071,-2.394,-2.394" fill="#E6E6E6"/>
    <circle  r="1.196" cx="33.42" cy="91.857" fill="#383838"/>
   </g>
   <g  id="J4pin">
    <path  d="M31.028,99.059c0,-1.322,1.072,-2.396,2.394,-2.396c1.322,0,2.395,1.07,2.395,2.396" fill="#BFBFBF"/>
    <path  d="M35.815,99.059c0,1.32,-1.071,2.393,-2.395,2.393c-1.32,0,-2.394,-1.07,-2.394,-2.393l0,0" fill="#E6E6E6"/>
    <circle  r="1.197" cx="33.42" cy="99.057" fill="#383838"/>
   </g>
   <g  id="F5pin">
    <path  d="M38.228,70.256c0,-1.32,1.07,-2.395,2.394,-2.395c1.324,0,2.395,1.07,2.395,2.395" fill="#BFBFBF"/>
    <path  d="M43.015,70.256c0,1.322,-1.071,2.396,-2.395,2.396c-1.324,0,-2.394,-1.072,-2.394,-2.396" fill="#E6E6E6"/>
    <circle  r="1.196" cx="40.62" cy="70.257" fill="#383838"/>
   </g>
   <g  id="G5pin">
    <path  d="M38.228,77.457c0,-1.322,1.07,-2.396,2.394,-2.396c1.324,0,2.395,1.072,2.395,2.396" fill="#BFBFBF"/>
    <path  d="M43.015,77.457c0,1.32,-1.071,2.395,-2.395,2.395c-1.324,0,-2.394,-1.07,-2.394,-2.395" fill="#E6E6E6"/>
    <circle  r="1.196" cx="40.62" cy="77.456" fill="#383838"/>
   </g>
   <g  id="H5pin">
    <path  d="M38.228,84.657c0,-1.322,1.07,-2.394,2.394,-2.394c1.324,0,2.395,1.069,2.395,2.394" fill="#BFBFBF"/>
    <path  d="M43.015,84.657c0,1.321,-1.071,2.395,-2.395,2.395c-1.324,0,-2.394,-1.071,-2.394,-2.395l0,0" fill="#E6E6E6"/>
    <circle  r="1.197" cx="40.62" cy="84.657" fill="#383838"/>
   </g>
   <g  id="I5pin">
    <path  d="M38.228,91.857c0,-1.321,1.07,-2.396,2.394,-2.396c1.324,0,2.395,1.072,2.395,2.396" fill="#BFBFBF"/>
    <path  d="M43.015,91.857c0,1.319,-1.071,2.394,-2.395,2.394c-1.324,0,-2.394,-1.071,-2.394,-2.394" fill="#E6E6E6"/>
    <circle  r="1.196" cx="40.62" cy="91.857" fill="#383838"/>
   </g>
   <g  id="J5pin">
    <path  d="M38.228,99.059c0,-1.322,1.07,-2.396,2.394,-2.396c1.324,0,2.395,1.07,2.395,2.396" fill="#BFBFBF"/>
    <path  d="M43.015,99.059c0,1.32,-1.071,2.393,-2.395,2.393c-1.324,0,-2.394,-1.07,-2.394,-2.393l0,0" fill="#E6E6E6"/>
    <circle  r="1.197" cx="40.62" cy="99.057" fill="#383838"/>
   </g>
   <g  id="F6pin">
    <path  d="M45.427,70.256c0,-1.32,1.071,-2.395,2.395,-2.395c1.324,0,2.394,1.07,2.394,2.395" fill="#BFBFBF"/>
    <path  d="M50.214,70.256c0,1.322,-1.07,2.396,-2.394,2.396c-1.324,0,-2.395,-1.072,-2.395,-2.396" fill="#E6E6E6"/>
    <circle  r="1.196" cx="47.822" cy="70.257" fill="#383838"/>
   </g>
   <g  id="G6pin">
    <path  d="M45.427,77.457c0,-1.322,1.071,-2.396,2.395,-2.396c1.324,0,2.394,1.072,2.394,2.396" fill="#BFBFBF"/>
    <path  d="M50.214,77.457c0,1.32,-1.07,2.395,-2.394,2.395c-1.324,0,-2.395,-1.07,-2.395,-2.395" fill="#E6E6E6"/>
    <circle  r="1.196" cx="47.822" cy="77.456" fill="#383838"/>
   </g>
   <g  id="H6pin">
    <path  d="M45.427,84.657c0,-1.322,1.071,-2.394,2.395,-2.394c1.324,0,2.394,1.069,2.394,2.394" fill="#BFBFBF"/>
    <path  d="M50.214,84.657c0,1.321,-1.07,2.395,-2.394,2.395c-1.324,0,-2.395,-1.071,-2.395,-2.395l0,0" fill="#E6E6E6"/>
    <circle  r="1.197" cx="47.822" cy="84.657" fill="#383838"/>
   </g>
   <g  id="I6pin">
    <path  d="M45.427,91.857c0,-1.321,1.071,-2.396,2.395,-2.396c1.324,0,2.394,1.072,2.394,2.396" fill="#BFBFBF"/>
    <path  d="M50.214,91.857c0,1.319,-1.07,2.394,-2.394,2.394c-1.324,0,-2.395,-1.071,-2.395,-2.394" fill="#E6E6E6"/>
    <circle  r="1.196" cx="47.822" cy="91.857" fill="#383838"/>
   </g>
   <g  id="J6pin">
    <path  d="M45.427,99.059c0,-1.322,1.071,-2.396,2.395,-2.396c1.324,0,2.394,1.07,2.394,2.396" fill="#BFBFBF"/>
    <path  d="M50.214,99.059c0,1.32,-1.07,2.393,-2.394,2.393c-1.324,0,-2.395,-1.07,-2.395,-2.393l0,0" fill="#E6E6E6"/>
    <circle  r="1.197" cx="47.822" cy="99.057" fill="#383838"/>
   </g>
   <g  id="F7pin">
    <path  d="M52.627,70.256c0,-1.32,1.071,-2.395,2.395,-2.395c1.32,0,2.394,1.07,2.394,2.395" fill="#BFBFBF"/>
    <path  d="M57.414,70.256c0,1.322,-1.072,2.396,-2.394,2.396s-2.395,-1.072,-2.395,-2.396" fill="#E6E6E6"/>
    <circle  r="1.196" cx="55.022" cy="70.257" fill="#383838"/>
   </g>
   <g  id="G7pin">
    <path  d="M52.627,77.457c0,-1.322,1.071,-2.396,2.395,-2.396c1.32,0,2.394,1.072,2.394,2.396" fill="#BFBFBF"/>
    <path  d="M57.414,77.457c0,1.32,-1.072,2.395,-2.394,2.395s-2.395,-1.07,-2.395,-2.395" fill="#E6E6E6"/>
    <circle  r="1.196" cx="55.022" cy="77.456" fill="#383838"/>
   </g>
   <g  id="H7pin">
    <path  d="M52.627,84.657c0,-1.322,1.071,-2.394,2.395,-2.394c1.32,0,2.394,1.069,2.394,2.394" fill="#BFBFBF"/>
    <path  d="M57.414,84.657c0,1.321,-1.072,2.395,-2.394,2.395s-2.395,-1.071,-2.395,-2.395l0,0" fill="#E6E6E6"/>
    <circle  r="1.197" cx="55.022" cy="84.657" fill="#383838"/>
   </g>
   <g  id="I7pin">
    <path  d="M52.627,91.857c0,-1.321,1.071,-2.396,2.395,-2.396c1.32,0,2.394,1.072,2.394,2.396" fill="#BFBFBF"/>
    <path  d="M57.414,91.857c0,1.319,-1.072,2.394,-2.394,2.394s-2.395,-1.071,-2.395,-2.394" fill="#E6E6E6"/>
    <circle  r="1.196" cx="55.022" cy="91.857" fill="#383838"/>
   </g>
   <g  id="J7pin">
    <path  d="M52.627,99.059c0,-1.322,1.071,-2.396,2.395,-2.396c1.32,0,2.394,1.07,2.394,2.396" fill="#BFBFBF"/>
    <path  d="M57.414,99.059c0,1.32,-1.072,2.393,-2.394,2.393s-2.395,-1.07,-2.395,-2.393l0,0" fill="#E6E6E6"/>
    <circle  r="1.197" cx="55.022" cy="99.057" fill="#383838"/>
   </g>
   <g  id="F8pin">
    <path  d="M59.826,70.256c0,-1.32,1.072,-2.395,2.395,-2.395c1.321,0,2.393,1.07,2.393,2.395" fill="#BFBFBF"/>
    <path  d="M64.614,70.256c0,1.322,-1.07,2.396,-2.393,2.396c-1.323,0,-2.395,-1.072,-2.395,-2.396" fill="#E6E6E6"/>
    <circle  r="1.196" cx="62.221" cy="70.257" fill="#383838"/>
   </g>
   <g  id="G8pin">
    <path  d="M59.826,77.457c0,-1.322,1.072,-2.396,2.395,-2.396c1.321,0,2.393,1.072,2.393,2.396" fill="#BFBFBF"/>
    <path  d="M64.614,77.457c0,1.32,-1.07,2.395,-2.393,2.395c-1.323,0,-2.395,-1.07,-2.395,-2.395" fill="#E6E6E6"/>
    <circle  r="1.196" cx="62.221" cy="77.456" fill="#383838"/>
   </g>
   <g  id="H8pin">
    <path  d="M59.826,84.657c0,-1.322,1.072,-2.394,2.395,-2.394c1.321,0,2.393,1.069,2.393,2.394" fill="#BFBFBF"/>
    <path  d="M64.614,84.657c0,1.321,-1.07,2.395,-2.393,2.395c-1.323,0,-2.395,-1.071,-2.395,-2.395l0,0" fill="#E6E6E6"/>
    <circle  r="1.197" cx="62.221" cy="84.657" fill="#383838"/>
   </g>
   <g  id="I8pin">
    <path  d="M59.826,91.857c0,-1.321,1.072,-2.396,2.395,-2.396c1.321,0,2.393,1.072,2.393,2.396" fill="#BFBFBF"/>
    <path  d="M64.614,91.857c0,1.319,-1.07,2.394,-2.393,2.394c-1.323,0,-2.395,-1.071,-2.395,-2.394" fill="#E6E6E6"/>
    <circle  r="1.196" cx="62.221" cy="91.857" fill="#383838"/>
   </g>
   <g  id="J8pin">
    <path  d="M59.826,99.059c0,-1.322,1.072,-2.396,2.395,-2.396c1.321,0,2.393,1.07,2.393,2.396" fill="#BFBFBF"/>
    <path  d="M64.614,99.059c0,1.32,-1.07,2.393,-2.393,2.393c-1.323,0,-2.395,-1.07,-2.395,-2.393l0,0" fill="#E6E6E6"/>
    <circle  r="1.197" cx="62.221" cy="99.057" fill="#383838"/>
   </g>
   <g  id="F9pin">
    <path  d="M67.028,70.256c0,-1.32,1.072,-2.395,2.393,-2.395c1.323,0,2.396,1.07,2.396,2.395" fill="#BFBFBF"/>
    <path  d="M71.815,70.256c0,1.322,-1.071,2.396,-2.396,2.396c-1.319,0,-2.393,-1.072,-2.393,-2.396" fill="#E6E6E6"/>
    <circle  r="1.196" cx="69.42" cy="70.257" fill="#383838"/>
   </g>
   <g  id="G9pin">
    <path  d="M67.028,77.457c0,-1.322,1.072,-2.396,2.393,-2.396c1.323,0,2.396,1.072,2.396,2.396" fill="#BFBFBF"/>
    <path  d="M71.815,77.457c0,1.32,-1.071,2.395,-2.396,2.395c-1.319,0,-2.393,-1.07,-2.393,-2.395" fill="#E6E6E6"/>
    <circle  r="1.196" cx="69.42" cy="77.456" fill="#383838"/>
   </g>
   <g  id="H9pin">
    <path  d="M67.028,84.657c0,-1.322,1.072,-2.394,2.393,-2.394c1.323,0,2.396,1.069,2.396,2.394" fill="#BFBFBF"/>
    <path  d="M71.815,84.657c0,1.321,-1.071,2.395,-2.396,2.395c-1.319,0,-2.393,-1.071,-2.393,-2.395l0,0" fill="#E6E6E6"/>
    <circle  r="1.197" cx="69.42" cy="84.657" fill="#383838"/>
   </g>
   <g  id="I9pin">
    <path  d="M67.028,91.857c0,-1.321,1.072,-2.396,2.393,-2.396c1.323,0,2.396,1.072,2.396,2.396" fill="#BFBFBF"/>
    <path  d="M71.815,91.857c0,1.319,-1.071,2.394,-2.396,2.394c-1.319,0,-2.393,-1.071,-2.393,-2.394" fill="#E6E6E6"/>
    <circle  r="1.196" cx="69.42" cy="91.857" fill="#383838"/>
   </g>
   <g  id="J9pin">
    <path  d="M67.028,99.059c0,-1.322,1.072,-2.396,2.393,-2.396c1.323,0,2.396,1.07,2.396,2.396" fill="#BFBFBF"/>
    <path  d="M71.815,99.059c0,1.32,-1.071,2.393,-2.396,2.393c-1.319,0,-2.393,-1.07,-2.393,-2.393l0,0" fill="#E6E6E6"/>
    <circle  r="1.197" cx="69.42" cy="99.057" fill="#383838"/>
   </g>
   <g  id="F10pin">
    <path  d="M74.227,70.256c0,-1.32,1.071,-2.395,2.396,-2.395c1.323,0,2.394,1.07,2.394,2.395" fill="#BFBFBF"/>
    <path  d="M79.014,70.256c0,1.322,-1.07,2.396,-2.394,2.396c-1.324,0,-2.396,-1.072,-2.396,-2.396" fill="#E6E6E6"/>
    <circle  r="1.196" cx="76.621" cy="70.257" fill="#383838"/>
   </g>
   <g  id="G10pin">
    <path  d="M74.227,77.457c0,-1.322,1.071,-2.396,2.396,-2.396c1.323,0,2.394,1.072,2.394,2.396" fill="#BFBFBF"/>
    <path  d="M79.014,77.457c0,1.32,-1.07,2.395,-2.394,2.395c-1.324,0,-2.396,-1.07,-2.396,-2.395" fill="#E6E6E6"/>
    <circle  r="1.196" cx="76.621" cy="77.456" fill="#383838"/>
   </g>
   <g  id="H10pin">
    <path  d="M74.227,84.657c0,-1.322,1.071,-2.394,2.396,-2.394c1.323,0,2.394,1.069,2.394,2.394" fill="#BFBFBF"/>
    <path  d="M79.014,84.657c0,1.321,-1.07,2.395,-2.394,2.395c-1.324,0,-2.396,-1.071,-2.396,-2.395l0,0" fill="#E6E6E6"/>
    <circle  r="1.197" cx="76.621" cy="84.657" fill="#383838"/>
   </g>
   <g  id="I10pin">
    <path  d="M74.227,91.857c0,-1.321,1.071,-2.396,2.396,-2.396c1.323,0,2.394,1.072,2.394,2.396" fill="#BFBFBF"/>
    <path  d="M79.014,91.857c0,1.319,-1.07,2.394,-2.394,2.394c-1.324,0,-2.396,-1.071,-2.396,-2.394" fill="#E6E6E6"/>
    <circle  r="1.196" cx="76.621" cy="91.857" fill="#383838"/>
   </g>
   <g  id="J10pin">
    <path  d="M74.227,99.059c0,-1.322,1.071,-2.396,2.396,-2.396c1.323,0,2.394,1.07,2.394,2.396" fill="#BFBFBF"/>
    <path  d="M79.014,99.059c0,1.32,-1.07,2.393,-2.394,2.393c-1.324,0,-2.396,-1.07,-2.396,-2.393l0,0" fill="#E6E6E6"/>
    <circle  r="1.197" cx="76.621" cy="99.057" fill="#383838"/>
   </g>
   <g  id="F11pin">
    <path  d="M81.428,70.256c0,-1.32,1.069,-2.395,2.394,-2.395s2.395,1.07,2.395,2.395" fill="#BFBFBF"/>
    <path  d="M86.214,70.256c0,1.322,-1.07,2.396,-2.395,2.396s-2.395,-1.072,-2.395,-2.396" fill="#E6E6E6"/>
    <circle  r="1.196" cx="83.821" cy="70.257" fill="#383838"/>
   </g>
   <g  id="G11pin">
    <path  d="M81.428,77.457c0,-1.322,1.069,-2.396,2.394,-2.396s2.395,1.072,2.395,2.396" fill="#BFBFBF"/>
    <path  d="M86.214,77.457c0,1.32,-1.07,2.395,-2.395,2.395s-2.395,-1.07,-2.395,-2.395" fill="#E6E6E6"/>
    <circle  r="1.196" cx="83.821" cy="77.456" fill="#383838"/>
   </g>
   <g  id="H11pin">
    <path  d="M81.428,84.657c0,-1.322,1.069,-2.394,2.394,-2.394s2.395,1.069,2.395,2.394" fill="#BFBFBF"/>
    <path  d="M86.214,84.657c0,1.321,-1.07,2.395,-2.395,2.395s-2.395,-1.071,-2.395,-2.395l0,0" fill="#E6E6E6"/>
    <circle  r="1.197" cx="83.821" cy="84.657" fill="#383838"/>
   </g>
   <g  id="I11pin">
    <path  d="M81.428,91.857c0,-1.321,1.069,-2.396,2.394,-2.396s2.395,1.072,2.395,2.396" fill="#BFBFBF"/>
    <path  d="M86.214,91.857c0,1.319,-1.07,2.394,-2.395,2.394s-2.395,-1.071,-2.395,-2.394" fill="#E6E6E6"/>
    <circle  r="1.196" cx="83.821" cy="91.857" fill="#383838"/>
   </g>
   <g  id="J11pin">
    <path  d="M81.428,99.059c0,-1.322,1.069,-2.396,2.394,-2.396s2.395,1.07,2.395,2.396" fill="#BFBFBF"/>
    <path  d="M86.214,99.059c0,1.32,-1.07,2.393,-2.395,2.393s-2.395,-1.07,-2.395,-2.393l0,0" fill="#E6E6E6"/>
    <circle  r="1.197" cx="83.821" cy="99.057" fill="#383838"/>
   </g>
   <g  id="F12pin">
    <path  d="M88.626,70.256c0,-1.32,1.072,-2.395,2.396,-2.395c1.318,0,2.393,1.07,2.393,2.395" fill="#BFBFBF"/>
    <path  d="M93.414,70.256c0,1.322,-1.072,2.396,-2.393,2.396c-1.322,0,-2.396,-1.072,-2.396,-2.396" fill="#E6E6E6"/>
    <circle  r="1.196" cx="91.022" cy="70.257" fill="#383838"/>
   </g>
   <g  id="G12pin">
    <path  d="M88.626,77.457c0,-1.322,1.072,-2.396,2.396,-2.396c1.318,0,2.393,1.072,2.393,2.396" fill="#BFBFBF"/>
    <path  d="M93.414,77.457c0,1.32,-1.072,2.395,-2.393,2.395c-1.322,0,-2.396,-1.07,-2.396,-2.395" fill="#E6E6E6"/>
    <circle  r="1.196" cx="91.022" cy="77.456" fill="#383838"/>
   </g>
   <g  id="H12pin">
    <path  d="M88.626,84.657c0,-1.322,1.072,-2.394,2.396,-2.394c1.318,0,2.393,1.069,2.393,2.394" fill="#BFBFBF"/>
    <path  d="M93.414,84.657c0,1.321,-1.072,2.395,-2.393,2.395c-1.322,0,-2.396,-1.071,-2.396,-2.395l0,0" fill="#E6E6E6"/>
    <circle  r="1.197" cx="91.022" cy="84.657" fill="#383838"/>
   </g>
   <g  id="I12pin">
    <path  d="M88.626,91.857c0,-1.321,1.072,-2.396,2.396,-2.396c1.318,0,2.393,1.072,2.393,2.396" fill="#BFBFBF"/>
    <path  d="M93.414,91.857c0,1.319,-1.072,2.394,-2.393,2.394c-1.322,0,-2.396,-1.071,-2.396,-2.394" fill="#E6E6E6"/>
    <circle  r="1.196" cx="91.022" cy="91.857" fill="#383838"/>
   </g>
   <g  id="J12pin">
    <path  d="M88.626,99.059c0,-1.322,1.072,-2.396,2.396,-2.396c1.318,0,2.393,1.07,2.393,2.396" fill="#BFBFBF"/>
    <path  d="M93.414,99.059c0,1.32,-1.072,2.393,-2.393,2.393c-1.322,0,-2.396,-1.07,-2.396,-2.393l0,0" fill="#E6E6E6"/>
    <circle  r="1.197" cx="91.022" cy="99.057" fill="#383838"/>
   </g>
   <g  id="F13pin">
    <path  d="M95.826,70.256c0,-1.32,1.072,-2.395,2.396,-2.395c1.322,0,2.393,1.07,2.393,2.395" fill="#BFBFBF"/>
    <path  d="M100.614,70.256c0,1.322,-1.069,2.396,-2.393,2.396s-2.396,-1.072,-2.396,-2.396" fill="#E6E6E6"/>
    <circle  r="1.196" cx="98.221" cy="70.257" fill="#383838"/>
   </g>
   <g  id="G13pin">
    <path  d="M95.826,77.457c0,-1.322,1.072,-2.396,2.396,-2.396c1.322,0,2.393,1.072,2.393,2.396" fill="#BFBFBF"/>
    <path  d="M100.614,77.457c0,1.32,-1.069,2.395,-2.393,2.395s-2.396,-1.07,-2.396,-2.395" fill="#E6E6E6"/>
    <circle  r="1.196" cx="98.221" cy="77.456" fill="#383838"/>
   </g>
   <g  id="H13pin">
    <path  d="M95.826,84.657c0,-1.322,1.072,-2.394,2.396,-2.394c1.322,0,2.393,1.069,2.393,2.394" fill="#BFBFBF"/>
    <path  d="M100.614,84.657c0,1.321,-1.069,2.395,-2.393,2.395s-2.396,-1.071,-2.396,-2.395l0,0" fill="#E6E6E6"/>
    <circle  r="1.197" cx="98.221" cy="84.657" fill="#383838"/>
   </g>
   <g  id="I13pin">
    <path  d="M95.826,91.857c0,-1.321,1.072,-2.396,2.396,-2.396c1.322,0,2.393,1.072,2.393,2.396" fill="#BFBFBF"/>
    <path  d="M100.614,91.857c0,1.319,-1.069,2.394,-2.393,2.394s-2.396,-1.071,-2.396,-2.394" fill="#E6E6E6"/>
    <circle  r="1.196" cx="98.221" cy="91.857" fill="#383838"/>
   </g>
   <g  id="J13pin">
    <path  d="M95.826,99.059c0,-1.322,1.072,-2.396,2.396,-2.396c1.322,0,2.393,1.07,2.393,2.396" fill="#BFBFBF"/>
    <path  d="M100.614,99.059c0,1.32,-1.069,2.393,-2.393,2.393s-2.396,-1.07,-2.396,-2.393l0,0" fill="#E6E6E6"/>
    <circle  r="1.197" cx="98.221" cy="99.057" fill="#383838"/>
   </g>
   <g  id="F14pin">
    <path  d="M103.028,70.256c0,-1.32,1.07,-2.395,2.394,-2.395c1.322,0,2.396,1.07,2.396,2.395" fill="#BFBFBF"/>
    <path  d="M107.815,70.256c0,1.322,-1.071,2.396,-2.396,2.396c-1.322,0,-2.394,-1.072,-2.394,-2.396" fill="#E6E6E6"/>
    <circle  r="1.196" cx="105.419" cy="70.257" fill="#383838"/>
   </g>
   <g  id="G14pin">
    <path  d="M103.028,77.457c0,-1.322,1.07,-2.396,2.394,-2.396c1.322,0,2.396,1.072,2.396,2.396" fill="#BFBFBF"/>
    <path  d="M107.815,77.457c0,1.32,-1.071,2.395,-2.396,2.395c-1.322,0,-2.394,-1.07,-2.394,-2.395" fill="#E6E6E6"/>
    <circle  r="1.196" cx="105.419" cy="77.456" fill="#383838"/>
   </g>
   <g  id="H14pin">
    <path  d="M103.028,84.657c0,-1.322,1.07,-2.394,2.394,-2.394c1.322,0,2.396,1.069,2.396,2.394" fill="#BFBFBF"/>
    <path  d="M107.815,84.657c0,1.321,-1.071,2.395,-2.396,2.395c-1.322,0,-2.394,-1.071,-2.394,-2.395l0,0" fill="#E6E6E6"/>
    <circle  r="1.197" cx="105.419" cy="84.657" fill="#383838"/>
   </g>
   <g  id="I14pin">
    <path  d="M103.028,91.857c0,-1.321,1.07,-2.396,2.394,-2.396c1.322,0,2.396,1.072,2.396,2.396" fill="#BFBFBF"/>
    <path  d="M107.815,91.857c0,1.319,-1.071,2.394,-2.396,2.394c-1.322,0,-2.394,-1.071,-2.394,-2.394" fill="#E6E6E6"/>
    <circle  r="1.196" cx="105.419" cy="91.857" fill="#383838"/>
   </g>
   <g  id="J14pin">
    <path  d="M103.028,99.059c0,-1.322,1.07,-2.396,2.394,-2.396c1.322,0,2.396,1.07,2.396,2.396" fill="#BFBFBF"/>
    <path  d="M107.815,99.059c0,1.32,-1.071,2.393,-2.396,2.393c-1.322,0,-2.394,-1.07,-2.394,-2.393l0,0" fill="#E6E6E6"/>
    <circle  r="1.197" cx="105.419" cy="99.057" fill="#383838"/>
   </g>
   <g  id="F15pin">
    <path  d="M110.227,70.256c0.002,-1.32,1.075,-2.392,2.397,-2.39c1.317,0.003,2.387,1.069,2.39,2.39" fill="#BFBFBF"/>
    <path  d="M115.014,70.256c0.002,1.322,-1.068,2.396,-2.39,2.396c-1.322,0.003,-2.396,-1.066,-2.397,-2.391c0,-0.002,0,-0.004,0,-0.008" fill="#E6E6E6"/>
    <circle  r="1.196" cx="112.621" cy="70.257" fill="#383838"/>
   </g>
   <g  id="G15pin">
    <path  d="M110.227,77.457c0.002,-1.322,1.075,-2.395,2.397,-2.393c1.317,0.002,2.387,1.07,2.39,2.393" fill="#BFBFBF"/>
    <path  d="M115.014,77.457c0.002,1.32,-1.068,2.396,-2.39,2.396c-1.322,0.002,-2.396,-1.067,-2.397,-2.392c0,-0.002,0,-0.004,0,-0.006" fill="#E6E6E6"/>
    <circle  r="1.196" cx="112.621" cy="77.456" fill="#383838"/>
   </g>
   <g  id="H15pin">
    <path  d="M110.227,84.657c0.002,-1.322,1.075,-2.394,2.397,-2.392c1.317,0.002,2.387,1.071,2.39,2.392" fill="#BFBFBF"/>
    <path  d="M115.014,84.657c0.002,1.321,-1.068,2.395,-2.39,2.396c-1.322,0.002,-2.396,-1.064,-2.397,-2.389c0,-0.002,0,-0.007,0,-0.01" fill="#E6E6E6"/>
    <circle  r="1.197" cx="112.621" cy="84.657" fill="#383838"/>
   </g>
   <g  id="I15pin">
    <path  d="M110.227,91.857c0.002,-1.321,1.075,-2.394,2.397,-2.392c1.317,0.002,2.387,1.07,2.39,2.392" fill="#BFBFBF"/>
    <path  d="M115.014,91.857c0.002,1.319,-1.068,2.396,-2.39,2.396c-1.322,0.002,-2.396,-1.066,-2.397,-2.393c0,-0.002,0,-0.004,0,-0.006" fill="#E6E6E6"/>
    <circle  r="1.196" cx="112.621" cy="91.857" fill="#383838"/>
   </g>
   <g  id="J15pin">
    <path  d="M110.227,99.059c0.002,-1.322,1.075,-2.395,2.397,-2.393c1.317,0.002,2.387,1.068,2.39,2.393" fill="#BFBFBF"/>
    <path  d="M115.014,99.059c0.002,1.32,-1.068,2.395,-2.39,2.396c-1.322,0.002,-2.396,-1.068,-2.397,-2.39c0,-0.004,0,-0.006,0,-0.008" fill="#E6E6E6"/>
    <circle  r="1.197" cx="112.621" cy="99.057" fill="#383838"/>
   </g>
   <g  id="F16pin">
    <path  d="M117.428,70.256c0.003,-1.32,1.073,-2.392,2.396,-2.39c1.318,0.003,2.389,1.069,2.391,2.39" fill="#BFBFBF"/>
    <path  d="M122.214,70.256c0.002,1.322,-1.066,2.396,-2.391,2.396c-1.324,0.002,-2.395,-1.066,-2.396,-2.391c0,-0.002,0,-0.004,0,-0.008" fill="#E6E6E6"/>
    <circle  r="1.196" cx="119.821" cy="70.257" fill="#383838"/>
   </g>
   <g  id="G16pin">
    <path  d="M117.428,77.457c0.003,-1.322,1.073,-2.395,2.396,-2.393c1.318,0.002,2.389,1.07,2.391,2.393" fill="#BFBFBF"/>
    <path  d="M122.214,77.457c0.002,1.32,-1.066,2.396,-2.391,2.396c-1.322,0.002,-2.395,-1.067,-2.396,-2.392c0,-0.002,0,-0.004,0,-0.006" fill="#E6E6E6"/>
    <circle  r="1.196" cx="119.821" cy="77.456" fill="#383838"/>
   </g>
   <g  id="H16pin">
    <path  d="M117.428,84.657c0.003,-1.322,1.073,-2.394,2.396,-2.392c1.318,0.002,2.389,1.071,2.391,2.392" fill="#BFBFBF"/>
    <path  d="M122.214,84.657c0.002,1.321,-1.066,2.395,-2.391,2.396c-1.324,0.002,-2.395,-1.064,-2.396,-2.389c0,-0.002,0,-0.007,0,-0.01" fill="#E6E6E6"/>
    <circle  r="1.197" cx="119.821" cy="84.657" fill="#383838"/>
   </g>
   <g  id="I16pin">
    <path  d="M117.428,91.857c0.003,-1.321,1.073,-2.394,2.396,-2.392c1.318,0.002,2.389,1.07,2.391,2.392" fill="#BFBFBF"/>
    <path  d="M122.214,91.857c0.002,1.319,-1.066,2.396,-2.391,2.396s-2.395,-1.066,-2.396,-2.393c0,-0.002,0,-0.004,0,-0.006" fill="#E6E6E6"/>
    <circle  r="1.196" cx="119.821" cy="91.857" fill="#383838"/>
   </g>
   <g  id="J16pin">
    <path  d="M117.428,99.059c0.003,-1.322,1.073,-2.395,2.396,-2.393c1.318,0.002,2.389,1.068,2.391,2.393" fill="#BFBFBF"/>
    <path  d="M122.214,99.059c0.002,1.32,-1.066,2.395,-2.391,2.396s-2.395,-1.068,-2.396,-2.39c0,-0.004,0,-0.006,0,-0.008" fill="#E6E6E6"/>
    <circle  r="1.197" cx="119.821" cy="99.057" fill="#383838"/>
   </g>
   <g  id="F17pin">
    <path  d="M124.626,70.256c0.002,-1.32,1.074,-2.392,2.396,-2.39c1.318,0.003,2.389,1.069,2.391,2.39" fill="#BFBFBF"/>
    <path  d="M129.414,70.256c0.002,1.322,-1.067,2.396,-2.392,2.396c-1.321,0.003,-2.396,-1.066,-2.396,-2.391c0,-0.002,0,-0.004,0,-0.008" fill="#E6E6E6"/>
    <circle  r="1.196" cx="127.02" cy="70.257" fill="#383838"/>
   </g>
   <g  id="G17pin">
    <path  d="M124.626,77.457c0.002,-1.322,1.074,-2.395,2.396,-2.393c1.318,0.002,2.389,1.07,2.391,2.393" fill="#BFBFBF"/>
    <path  d="M129.414,77.457c0.002,1.32,-1.067,2.396,-2.392,2.396c-1.321,0.002,-2.396,-1.067,-2.396,-2.392c0,-0.002,0,-0.004,0,-0.006" fill="#E6E6E6"/>
    <circle  r="1.196" cx="127.02" cy="77.456" fill="#383838"/>
   </g>
   <g  id="H17pin">
    <path  d="M124.626,84.657c0.002,-1.322,1.074,-2.394,2.396,-2.392c1.318,0.002,2.389,1.071,2.391,2.392" fill="#BFBFBF"/>
    <path  d="M129.414,84.657c0.002,1.321,-1.067,2.395,-2.392,2.396c-1.321,0.002,-2.396,-1.064,-2.396,-2.389c0,-0.002,0,-0.007,0,-0.01" fill="#E6E6E6"/>
    <circle  r="1.197" cx="127.02" cy="84.657" fill="#383838"/>
   </g>
   <g  id="I17pin">
    <path  d="M124.626,91.857c0.002,-1.321,1.074,-2.394,2.396,-2.392c1.318,0.002,2.389,1.07,2.391,2.392" fill="#BFBFBF"/>
    <path  d="M129.414,91.857c0.002,1.319,-1.067,2.396,-2.392,2.396c-1.321,0.002,-2.396,-1.066,-2.396,-2.393c0,-0.002,0,-0.004,0,-0.006" fill="#E6E6E6"/>
    <circle  r="1.196" cx="127.02" cy="91.857" fill="#383838"/>
   </g>
   <g  id="J17pin">
    <path  d="M124.626,99.059c0.002,-1.322,1.074,-2.395,2.396,-2.393c1.318,0.002,2.389,1.068,2.391,2.393" fill="#BFBFBF"/>
    <path  d="M129.414,99.059c0.002,1.32,-1.067,2.395,-2.392,2.396c-1.321,0.002,-2.396,-1.068,-2.396,-2.39c0,-0.004,0,-0.006,0,-0.008" fill="#E6E6E6"/>
    <circle  r="1.197" cx="127.02" cy="99.057" fill="#383838"/>
   </g>
  </g>
 </g>
</g>
</g></g><path stroke='#8c8c8c' stroke-width='2.0952' stroke-linecap='round' stroke-linejoin='round' fill='none' d='M200.586,71.0369L215.733,91.6005' />
<path stroke='#8c8c8c' stroke-width='2.0952' stroke-linecap='round' stroke-linejoin='round' fill='none' d='M173.876,71.0369L129.334,84.4005' />
<g partID='854185010'><g transform='translate(202.681,74.6693)' ><g transform='matrix(-1,0,0,-1,0,0)'  ><g xmlns="http://www.w3.org/2000/svg" id="breadboard">
 <rect xmlns="http://www.w3.org/2000/svg" id="connector0pin" width="0.72" x="0.36" y="2.5848" height="0.72" fill="none"/>
 <rect xmlns="http://www.w3.org/2000/svg" id="connector1pin" width="0.72" x="29.8202" y="2.5848" height="0.72" fill="none"/>
 <line xmlns="http://www.w3.org/2000/svg" id="connector0leg" y1="3.6324" y2="3.6324" x1="1.0476" stroke-width="2.0952" x2="2.0952" stroke="#8C8C8C" stroke-linecap="round" fill="none"/>
 <line xmlns="http://www.w3.org/2000/svg" id="connector1leg" y1="3.6324" y2="3.6324" x1="29.8526" stroke-width="2.0952" x2="28.805" stroke="#8C8C8C" stroke-linecap="round" fill="none"/>
 <path xmlns="http://www.w3.org/2000/svg" d="M1.0476,3.6324l28.3666,0" stroke-width="2.0952" stroke="#8C8C8C" fill="none"/>
 <path xmlns="http://www.w3.org/2000/svg" id="body" d="M10.2478,0.49536c-0.36,-0.1656,-0.9792,-0.2952,-1.3752,-0.2952l-1.9872,0c-0.396,0,-0.72,0.324,-0.72,0.72l0,5.35608c0,0.39672,0.324,0.72,0.72,0.72l1.9872,0c0.396,0,1.0152,-0.13608,1.3752,-0.2952l0.072,-0.03528c0.36,-0.1656,0.9792,-0.2952,1.3752,-0.2952l7.1856,0c0.39672,0,1.01448,0.13608,1.37448,0.2952l0.07272,0.03528c0.36,0.1656,0.97776,0.2952,1.3752,0.2952l1.9872,0c0.39744,0,0.72,-0.32328,0.72,-0.72L24.4102,0.92016c0,-0.396,-0.32256,-0.72,-0.72,-0.72l-1.9872,0c-0.39744,0,-1.0152,0.1368,-1.3752,0.2952l-0.07272,0.036c-0.36,0.1656,-0.97776,0.2952,-1.37448,0.2952l-7.1856,0c-0.396,0,-1.0152,-0.1368,-1.3752,-0.2952L10.2478,0.49536z" fill="#D9B477"/>
 <rect xmlns="http://www.w3.org/2000/svg" id="gold_band" width="0.70272" x="22.019" y="0.19368" height="6.79536" fill="#ad9f4e"/>
 <rect xmlns="http://www.w3.org/2000/svg" id="band_rd_multiplier" width="1.8504" x="16.1726" y="0.82656" height="5.5368" fill="#ff4d00"/>
 <rect xmlns="http://www.w3.org/2000/svg" id="band_2_nd" width="1.8504" x="12.4726" y="0.82656" height="5.5368" fill="#c40808"/>
 <path xmlns="http://www.w3.org/2000/svg" id="band_1_st" d="M10.6286,0.63936c-0.1152,-0.036,-0.2232,-0.072,-0.3096,-0.1152l-0.072,-0.036c-0.36,-0.16488,-0.9792,-0.2952,-1.3752,-0.2952l-0.0864,0l0,6.79608l0.0864,0c0.396,0,1.0152,-0.13608,1.3752,-0.2952l0.072,-0.03528c0.0864,-0.04464,0.1944,-0.07992,0.3096,-0.1152L10.6286,0.63936z" fill="#c40808"/>
 <path xmlns="http://www.w3.org/2000/svg" id="Shadow" d="M23.711,4.0896L23.711,4.0896c0,0.37944,-0.13032,0.69912,-0.2952,0.69912l-1.9224,0c-0.38016,0,-0.97776,-0.05616,-1.33272,-0.1224L20.088,4.65048c-0.34488,-0.0648,-0.94896,-0.1224,-1.33344,-0.1224L11.808,4.52808c-0.3816,0,-0.9792,0.0576,-1.332,0.1224l-0.072,0.01512c-0.3456,0.06552,-0.9432,0.1224,-1.332,0.1224l-0.3168,0l-1.0008,0l-0.3096,0c-0.3816,0,-0.6984,0.29376,-0.6984,0.64512l0,0.24696L6.7464,5.8392l0,0.1728c0,0.36,0.3168,0.64512,0.6984,0.64512l1.62,0c0.3816,0,0.9792,-0.1224,1.332,-0.26712l0.072,-0.02808c0.3456,-0.14112,0.9504,-0.26496,1.332,-0.26496l6.94656,0c0.37944,0,0.97704,0.12384,1.33416,0.26568l0.07416,0.02808c0.34488,0.14472,0.94464,0.26712,1.33344,0.26712l2.2248,0c0.38088,0,0.69912,-0.2952,0.69912,-0.64512L24.413,5.472L24.413,4.49928L24.413,2.65536C24.1358,2.76336,23.711,3.06576,23.711,4.0896z" opacity="0.3"/>
 <rect xmlns="http://www.w3.org/2000/svg" id="ShadowExtra" width="0.70272" x="22.019" y="3.48336" height="3.15288" opacity="0.4"/>
 <path xmlns="http://www.w3.org/2000/svg" id="ReflexRight" d="M19.751,1.08576c0.22968,0,0.49104,-0.1008,0.6624,-0.1728c0.2016,-0.0792,0.57672,-0.144,0.96624,-0.144l1.46088,0c0.22464,0,0.22464,0.2448,0.22464,0.3744c0,0.1296,-0.01512,0.3816,-0.22464,0.3816l-3.06,0c-0.10728,0,-0.2304,-0.1152,-0.2304,-0.22392C19.5566,1.21536,19.6286,1.08576,19.751,1.08576z" opacity="0.25" fill="#FFFFFF"/>
 <circle xmlns="http://www.w3.org/2000/svg" id="ReflexLeft" r="0.432" cx="6.99984" cy="1.13616" opacity="0.35" fill="#FFFFFF"/>
 <rect xmlns="http://www.w3.org/2000/svg" id="Reflex_gold" width="0.70272" x="22.019" y="0.42336" height="1.62" opacity="0.5" fill="#FFFF33"/>
 <rect xmlns="http://www.w3.org/2000/svg" id="Reflex_extra" width="0.70272" x="22.019" y="0.78336" height="0.7488" opacity="0.5" fill="#FFFFFF"/>
</g>
</g></g></g><g partID='854186980'><line stroke-linecap='round' stroke='#999999' x1='208.533' y1='91.6005' x2='143.734' y2='84.4005' stroke-width='3.2' /><line stroke-linecap='round' stroke='#ffffff' x1='208.533' y1='91.6005' x2='143.734' y2='84.4005' stroke-width='1.6' /></g><g partID='854187230'><line stroke-linecap='round' stroke='#8c0000' x1='129.334' y1='113.201' x2='129.334' y2='163.6' stroke-width='3.2' /><line stroke-linecap='round' stroke='#cc1414' x1='129.334' y1='113.201' x2='129.334' y2='163.6' stroke-width='1.6' /></g><g partID='854187250'><line stroke-linecap='round' stroke='#00a527' x1='143.734' y1='113.201' x2='140.077' y2='179.162' stroke-width='3.2' /><line stroke-linecap='round' stroke='#25cc35' x1='143.734' y1='113.201' x2='140.077' y2='179.162' stroke-width='1.6' /></g><g partID='854185010' id='partLabel'><g transform='translate(260.537,38.878)' ><g font-size='9' font-style='normal' font-weight='normal' fill='#000000' font-family="'DroidSans'" id='breadboardLabel' fill-opacity='1' stroke='none' ><text x='0' y='6.75'>R1 - Resistance of Sensor x 2</text><text x='0' y='15.75'>&#xb1;5%</text><text x='0' y='24.75'>22k&#x3a9;</text></g></g></g><g partID='854185120'><g>
 <rect width="106.4" x="2.8" stroke-width="5.6" y="2.8" stroke="#fabc4f" height="64.8" fill="#ffe9c8"/>
 <g text-anchor="left" stroke="none" font-family="Droid Sans" font-size="6.675" fill="#000000">
  <text x="8.8" y="15.475" fill="#000000">Position a resistor so it </text>
 </g>
 <g text-anchor="left" stroke="none" font-family="Droid Sans" font-size="6.675" fill="#000000">
  <text x="8.8" y="24.275" fill="#000000">connects the first free row </text>
 </g>
 <g text-anchor="left" stroke="none" font-family="Droid Sans" font-size="6.675" fill="#000000">
  <text x="8.8" y="33.075" fill="#000000">(when the ESP is on the </text>
 </g>
 <g text-anchor="left" stroke="none" font-family="Droid Sans" font-size="6.675" fill="#000000">
  <text x="8.8" y="41.875" fill="#000000">breadboard) to the 3V3 Pin on </text>
 </g>
 <g text-anchor="left" stroke="none" font-family="Droid Sans" font-size="6.675" fill="#000000">
  <text x="8.8" y="50.675" fill="#000000">the ESP when it is placed on </text>
 </g>
 <g text-anchor="left" stroke="none" font-family="Droid Sans" font-size="6.675" fill="#000000">
  <text x="8.8" y="59.475" fill="#000000">the breadboard</text>
 </g>
</g>
</g></svg>